<svg width="100" height="100" viewBox="0 0 100 100" fill="none" xmlns="http://www.w3.org/2000/svg">
<path d="M25 60.4167C23.8494 60.4167 22.9167 61.3494 22.9167 62.5C22.9167 63.6506 23.8494 64.5834 25 64.5834H54.1667C55.3173 64.5834 56.25 63.6506 56.25 62.5C56.25 61.3494 55.3173 60.4167 54.1667 60.4167H25Z" fill="#393939"/>
<path d="M22.9167 72.9166C22.9167 71.766 23.8494 70.8333 25 70.8333H41.6667C42.8173 70.8333 43.75 71.766 43.75 72.9166C43.75 74.0673 42.8173 75 41.6667 75H25C23.8494 75 22.9167 74.0673 22.9167 72.9166Z" fill="#393939"/>
<path fill-rule="evenodd" clip-rule="evenodd" d="M25 18.75C25 15.2982 27.7981 12.5 31.25 12.5H47.9167C51.3685 12.5 54.1667 15.2982 54.1667 18.75H60.4167C63.8685 18.75 66.6667 21.5481 66.6667 25V81.25C66.6667 84.7019 63.8685 87.5 60.4167 87.5H18.75C15.2982 87.5 12.5 84.7019 12.5 81.25V25C12.5 21.5481 15.2982 18.75 18.75 18.75H25ZM16.6667 47.9167H29.5235L32.5856 42.7787L36.3669 56.6567L44.77 45.8333H53.6833C54.834 45.8333 55.7667 44.9004 55.7667 43.75C55.7667 42.5994 54.834 41.6667 53.6833 41.6667H42.73L38.1933 47.5098L34.0277 32.221L27.1563 43.75H16.6667V25C16.6667 23.8494 17.5994 22.9167 18.75 22.9167H25C25 26.3685 27.7981 29.1667 31.25 29.1667H47.9167C51.3685 29.1667 54.1667 26.3685 54.1667 22.9167H60.4167C61.5673 22.9167 62.5 23.8494 62.5 25V81.25C62.5 82.4006 61.5673 83.3333 60.4167 83.3333H18.75C17.5994 83.3333 16.6667 82.4006 16.6667 81.25V47.9167ZM50 18.75V22.9167C50 24.0673 49.0673 25 47.9167 25H31.25C30.0994 25 29.1667 24.0673 29.1667 22.9167V18.75C29.1667 17.5994 30.0994 16.6667 31.25 16.6667H47.9167C49.0673 16.6667 50 17.5994 50 18.75Z" fill="#393939"/>
<path fill-rule="evenodd" clip-rule="evenodd" d="M81.25 29.1667C77.7981 29.1667 75 31.9648 75 35.4167V77.7142L81.25 87.0892L87.5 77.7142V35.4167C87.5 31.9648 84.7019 29.1667 81.25 29.1667ZM79.1667 35.4167C79.1667 34.2661 80.0994 33.3334 81.25 33.3334C82.4006 33.3334 83.3333 34.2661 83.3333 35.4167V39.5834H79.1667V35.4167ZM79.1667 76.4525V43.75H83.3333V76.4525L81.25 79.5775L79.1667 76.4525Z" fill="#393939"/>
</svg>
