<svg width="100" height="100" viewBox="0 0 100 100" fill="none" xmlns="http://www.w3.org/2000/svg">
<path d="M30 15C26.0218 15 22.2064 16.5804 19.3934 19.3934C16.5804 22.2064 15 26.0218 15 30V70C15 73.9782 16.5804 77.7936 19.3934 80.6066C22.2064 83.4196 26.0218 85 30 85H48C47.1824 83.4019 46.5242 81.7272 46.035 80H30C27.3478 80 24.8043 78.9464 22.9289 77.0711C21.0536 75.1957 20 72.6522 20 70V35H80V46.035C81.745 46.53 83.415 47.185 85 48V30C85 26.0218 83.4196 22.2064 80.6066 19.3934C77.7936 16.5804 73.9782 15 70 15H30ZM20 30C20 27.3478 21.0536 24.8043 22.9289 22.9289C24.8043 21.0536 27.3478 20 30 20H70C72.6522 20 75.1957 21.0536 77.0711 22.9289C78.9464 24.8043 80 27.3478 80 30H20ZM70.425 45.075C70.2039 45.0225 69.9772 44.9973 69.75 45H47.75C47.2279 44.9922 46.7142 45.1315 46.2676 45.4021C45.821 45.6727 45.4597 46.0636 45.225 46.53C45.0167 46.9847 44.9616 47.4947 45.068 47.9834C45.1744 48.4721 45.4365 48.913 45.815 49.24V49.26C46.3417 49.745 47.0341 50.0098 47.75 50H56.685C60.7343 47.144 65.4834 45.4417 70.425 45.075ZM27.89 45.55C27.6267 46.1661 27.4939 46.83 27.5 47.5C27.515 48.184 27.6469 48.8604 27.89 49.5C28.1205 50.0895 28.4812 50.6193 28.945 51.05C29.415 51.5 29.955 51.85 30.545 52.11C31.1626 52.374 31.8284 52.5068 32.5 52.5C33.1737 52.5308 33.8447 52.3969 34.455 52.11C35.0504 51.843 35.5925 51.4703 36.055 51.01C36.519 50.5518 36.8861 50.0049 37.1343 49.4019C37.3826 48.7989 37.5069 48.1521 37.5 47.5C37.5005 46.8306 37.368 46.1677 37.11 45.55C36.862 44.9454 36.4888 44.4001 36.015 43.95C35.5455 43.51 35.0044 43.1532 34.415 42.895C33.8108 42.6325 33.1588 42.498 32.5 42.5C31.8259 42.4774 31.156 42.6145 30.545 42.9C29.355 43.4106 28.4051 44.3569 27.89 45.545V45.55ZM27.5 67.5C27.4918 66.847 27.6156 66.1991 27.8639 65.5951C28.1122 64.9911 28.4799 64.4434 28.945 63.985C29.4097 63.5299 29.9514 63.1609 30.545 62.895C31.1553 62.6073 31.8257 62.4701 32.5 62.495C33.1593 62.4925 33.8118 62.6288 34.415 62.895C35.005 63.145 35.545 63.505 36.015 63.945C36.49 64.395 36.865 64.945 37.11 65.545C37.6223 66.7683 37.6308 68.1444 37.1335 69.3739C36.6363 70.6034 35.6736 71.5867 34.455 72.11C33.8447 72.3969 33.1737 72.5308 32.5 72.5C31.8284 72.5068 31.1626 72.374 30.545 72.11C29.9542 71.8544 29.4127 71.4974 28.945 71.055C28.48 70.6213 28.1194 70.088 27.89 69.495C27.6469 68.8554 27.515 68.179 27.5 67.495V67.5ZM85 91.21C82.543 92.8515 79.7867 93.993 76.8885 94.5693C73.9903 95.1456 71.007 95.1455 68.1089 94.5688C65.2108 93.9922 62.4546 92.8503 59.9978 91.2085C57.5409 89.5667 55.4315 87.457 53.79 85C52.1485 82.543 51.007 79.7867 50.4307 76.8885C49.8544 73.9903 49.8545 71.007 50.4312 68.1089C51.0079 65.2108 52.1497 62.4546 53.7915 59.9978C55.4333 57.5409 57.543 55.4315 60 53.79C64.9622 50.4748 71.0381 49.2666 76.8911 50.4312C82.7441 51.5958 87.8948 55.0378 91.21 60C94.5252 64.9622 95.7334 71.0381 94.5688 76.8911C93.4042 82.7441 89.9622 87.8948 85 91.21V91.21ZM74.27 60.73C73.9204 60.3795 73.4745 60.1406 72.989 60.0438C72.5034 59.947 72 59.9965 71.5427 60.1861C71.0853 60.3757 70.6945 60.6968 70.4199 61.1087C70.1453 61.5207 69.9991 62.0049 70 62.5V70H62.5C61.837 70 61.2011 70.2634 60.7322 70.7322C60.2634 71.2011 60 71.837 60 72.5C60 73.163 60.2634 73.7989 60.7322 74.2678C61.2011 74.7366 61.837 75 62.5 75H70V82.5C70 83.163 70.2634 83.7989 70.7322 84.2678C71.2011 84.7366 71.837 85 72.5 85C73.163 85 73.7989 84.7366 74.2678 84.2678C74.7366 83.7989 75 83.163 75 82.5V75H82.5C83.163 75 83.7989 74.7366 84.2678 74.2678C84.7366 73.7989 85 73.163 85 72.5C85 71.837 84.7366 71.2011 84.2678 70.7322C83.7989 70.2634 83.163 70 82.5 70H75V62.5C75.0006 62.1715 74.9364 61.8461 74.8112 61.5423C74.6859 61.2386 74.502 60.9626 74.27 60.73Z" fill="#393939"/>
</svg>
