<svg width="100" height="100" viewBox="0 0 100 100" fill="none" xmlns="http://www.w3.org/2000/svg">
<path d="M50 58.3334V66.6667C43.3696 66.6667 37.0108 69.3006 32.3224 73.989C27.6339 78.6774 25 85.0363 25 91.6667H16.6667C16.6667 82.8261 20.1786 74.3477 26.4298 68.0965C32.681 61.8452 41.1595 58.3334 50 58.3334V58.3334ZM50 54.1667C36.1875 54.1667 25 42.9792 25 29.1667C25 15.3542 36.1875 4.16669 50 4.16669C63.8125 4.16669 75 15.3542 75 29.1667C75 42.9792 63.8125 54.1667 50 54.1667ZM50 45.8334C59.2084 45.8334 66.6667 38.375 66.6667 29.1667C66.6667 19.9584 59.2084 12.5 50 12.5C40.7917 12.5 33.3334 19.9584 33.3334 29.1667C33.3334 38.375 40.7917 45.8334 50 45.8334ZM87.5 70.8334H91.6667V91.6667H58.3334V70.8334H62.5V66.6667C62.5 63.3515 63.817 60.1721 66.1612 57.8278C68.5054 55.4836 71.6848 54.1667 75 54.1667C78.3152 54.1667 81.4946 55.4836 83.8389 57.8278C86.1831 60.1721 87.5 63.3515 87.5 66.6667V70.8334ZM79.1667 70.8334V66.6667C79.1667 65.5616 78.7277 64.5018 77.9463 63.7204C77.1649 62.939 76.1051 62.5 75 62.5C73.8949 62.5 72.8351 62.939 72.0537 63.7204C71.2723 64.5018 70.8334 65.5616 70.8334 66.6667V70.8334H79.1667Z" fill="#794B93"/>
</svg>
