<svg width="100" height="100" viewBox="0 0 100 100" fill="none" xmlns="http://www.w3.org/2000/svg">
<path d="M85.9375 17.9688H69.5312V11.7188C69.5312 11.2891 69.1797 10.9375 68.75 10.9375H63.2812C62.8516 10.9375 62.5 11.2891 62.5 11.7188V17.9688H37.5V11.7188C37.5 11.2891 37.1484 10.9375 36.7188 10.9375H31.25C30.8203 10.9375 30.4688 11.2891 30.4688 11.7188V17.9688H14.0625C12.334 17.9688 10.9375 19.3652 10.9375 21.0938V85.9375C10.9375 87.666 12.334 89.0625 14.0625 89.0625H85.9375C87.666 89.0625 89.0625 87.666 89.0625 85.9375V21.0938C89.0625 19.3652 87.666 17.9688 85.9375 17.9688ZM82.0312 82.0312H17.9688V44.9219H82.0312V82.0312ZM17.9688 38.2812V25H30.4688V29.6875C30.4688 30.1172 30.8203 30.4688 31.25 30.4688H36.7188C37.1484 30.4688 37.5 30.1172 37.5 29.6875V25H62.5V29.6875C62.5 30.1172 62.8516 30.4688 63.2812 30.4688H68.75C69.1797 30.4688 69.5312 30.1172 69.5312 29.6875V25H82.0312V38.2812H17.9688Z" fill="#393939"/>
</svg>
