<svg width="144" height="144" viewBox="0 0 144 144" fill="none" xmlns="http://www.w3.org/2000/svg">
<g filter="url(#filter0_d_924_6233)">
<path d="M95.3333 58.3334H48.6667C44.9848 58.3334 42 61.3181 42 65V91.6667C42 95.3486 44.9848 98.3334 48.6667 98.3334H95.3333C99.0152 98.3334 102 95.3486 102 91.6667V65C102 61.3181 99.0152 58.3334 95.3333 58.3334Z" stroke="#50266A" stroke-width="2" stroke-linecap="round" stroke-linejoin="round"/>
<path d="M52 45C52 42.3478 53.0536 39.8043 54.9289 37.9289C56.8043 36.0536 59.3478 35 62 35H82C84.6522 35 87.1957 36.0536 89.0711 37.9289C90.9464 39.8043 92 42.3478 92 45V58.3333H52V45Z" stroke="#50266A" stroke-width="2" stroke-linecap="round" stroke-linejoin="round"/>
<rect x="22.5" y="15.5" width="99" height="99" rx="4.5" stroke="#50266A" shape-rendering="crispEdges"/>
</g>
<defs>
<filter id="filter0_d_924_6233" x="0" y="0" width="144" height="144" filterUnits="userSpaceOnUse" color-interpolation-filters="sRGB">
<feFlood flood-opacity="0" result="BackgroundImageFix"/>
<feColorMatrix in="SourceAlpha" type="matrix" values="0 0 0 0 0 0 0 0 0 0 0 0 0 0 0 0 0 0 127 0" result="hardAlpha"/>
<feOffset dy="7"/>
<feGaussianBlur stdDeviation="11"/>
<feComposite in2="hardAlpha" operator="out"/>
<feColorMatrix type="matrix" values="0 0 0 0 0 0 0 0 0 0 0 0 0 0 0 0 0 0 0.25 0"/>
<feBlend mode="normal" in2="BackgroundImageFix" result="effect1_dropShadow_924_6233"/>
<feBlend mode="normal" in="SourceGraphic" in2="effect1_dropShadow_924_6233" result="shape"/>
</filter>
</defs>
</svg>
