<svg width="100" height="100" viewBox="0 0 100 100" fill="none" xmlns="http://www.w3.org/2000/svg">
<path d="M53.125 31.4625V38.3375L59.0813 34.9L62.2063 40.3188L56.25 43.75L62.2063 47.1875L59.0813 52.6L53.125 49.1625V56.0375H46.875V49.1625L40.9187 52.6L37.7937 47.1875L43.75 43.75L37.7937 40.3125L40.9187 34.9L46.875 38.3375V31.4625H53.125V31.4625ZM82.8125 56.25C82.3981 56.25 82.0007 56.4146 81.7076 56.7077C81.4146 57.0007 81.25 57.3981 81.25 57.8125V60.9375C81.25 61.8 81.95 62.5 82.8125 62.5H85.9375C86.3519 62.5 86.7493 62.3354 87.0424 62.0424C87.3354 61.7494 87.5 61.3519 87.5 60.9375V57.8125C87.5 57.3981 87.3354 57.0007 87.0424 56.7077C86.7493 56.4146 86.3519 56.25 85.9375 56.25H82.8125ZM81.25 70.3125C81.25 69.8981 81.4146 69.5007 81.7076 69.2077C82.0007 68.9146 82.3981 68.75 82.8125 68.75H85.9375C86.3519 68.75 86.7493 68.9146 87.0424 69.2077C87.3354 69.5007 87.5 69.8981 87.5 70.3125V73.4375C87.5 73.8519 87.3354 74.2494 87.0424 74.5424C86.7493 74.8354 86.3519 75 85.9375 75H82.8125C82.3981 75 82.0007 74.8354 81.7076 74.5424C81.4146 74.2494 81.25 73.8519 81.25 73.4375V70.3125ZM82.8125 81.25C82.3981 81.25 82.0007 81.4146 81.7076 81.7077C81.4146 82.0007 81.25 82.3981 81.25 82.8125V85.9375C81.25 86.8 81.95 87.5 82.8125 87.5H85.9375C86.3519 87.5 86.7493 87.3354 87.0424 87.0424C87.3354 86.7494 87.5 86.3519 87.5 85.9375V82.8125C87.5 82.3981 87.3354 82.0007 87.0424 81.7077C86.7493 81.4146 86.3519 81.25 85.9375 81.25H82.8125ZM14.0625 56.25C13.6481 56.25 13.2507 56.4146 12.9576 56.7077C12.6646 57.0007 12.5 57.3981 12.5 57.8125V60.9375C12.5 61.8 13.2 62.5 14.0625 62.5H17.1875C17.6019 62.5 17.9993 62.3354 18.2924 62.0424C18.5854 61.7494 18.75 61.3519 18.75 60.9375V57.8125C18.75 57.3981 18.5854 57.0007 18.2924 56.7077C17.9993 56.4146 17.6019 56.25 17.1875 56.25H14.0625ZM14.0625 68.75C13.6481 68.75 13.2507 68.9146 12.9576 69.2077C12.6646 69.5007 12.5 69.8981 12.5 70.3125V73.4375C12.5 74.3 13.2 75 14.0625 75H17.1875C17.6019 75 17.9993 74.8354 18.2924 74.5424C18.5854 74.2494 18.75 73.8519 18.75 73.4375V70.3125C18.75 69.8981 18.5854 69.5007 18.2924 69.2077C17.9993 68.9146 17.6019 68.75 17.1875 68.75H14.0625ZM12.5 82.8125C12.5 82.3981 12.6646 82.0007 12.9576 81.7077C13.2507 81.4146 13.6481 81.25 14.0625 81.25H17.1875C17.6019 81.25 17.9993 81.4146 18.2924 81.7077C18.5854 82.0007 18.75 82.3981 18.75 82.8125V85.9375C18.75 86.3519 18.5854 86.7494 18.2924 87.0424C17.9993 87.3354 17.6019 87.5 17.1875 87.5H14.0625C13.6481 87.5 13.2507 87.3354 12.9576 87.0424C12.6646 86.7494 12.5 86.3519 12.5 85.9375V82.8125Z" fill="#794B93"/>
<path d="M31.25 6.25C31.25 4.5924 31.9085 3.00269 33.0806 1.83058C34.2527 0.65848 35.8424 0 37.5 0L62.5 0C64.1576 0 65.7473 0.65848 66.9194 1.83058C68.0915 3.00269 68.75 4.5924 68.75 6.25V12.5C70.4076 12.5 71.9973 13.1585 73.1694 14.3306C74.3415 15.5027 75 17.0924 75 18.75V43.75H93.75C95.4076 43.75 96.9973 44.4085 98.1694 45.5806C99.3415 46.7527 100 48.3424 100 50V93.75C100 95.4076 99.3415 96.9973 98.1694 98.1694C96.9973 99.3415 95.4076 100 93.75 100H6.25C4.5924 100 3.00269 99.3415 1.83058 98.1694C0.65848 96.9973 0 95.4076 0 93.75V50C0 48.3424 0.65848 46.7527 1.83058 45.5806C3.00269 44.4085 4.5924 43.75 6.25 43.75H25V18.75C25 17.0924 25.6585 15.5027 26.8306 14.3306C28.0027 13.1585 29.5924 12.5 31.25 12.5V6.25ZM43.75 93.75H56.25V75H43.75V93.75ZM62.5 93.75H68.75V18.75H31.25V93.75H37.5V75C37.5 73.3424 38.1585 71.7527 39.3306 70.5806C40.5027 69.4085 42.0924 68.75 43.75 68.75H56.25C57.9076 68.75 59.4973 69.4085 60.6694 70.5806C61.8415 71.7527 62.5 73.3424 62.5 75V93.75ZM62.5 6.25H37.5V12.5H62.5V6.25ZM75 50V93.75H93.75V50H75ZM25 93.75V50H6.25V93.75H25Z" fill="#794B93"/>
</svg>
