<svg width="100" height="100" viewBox="0 0 100 100" fill="none" xmlns="http://www.w3.org/2000/svg">
<path d="M75 33.3333H70.8334V29.1666C70.8334 17.6791 61.4875 8.33331 50 8.33331C38.5125 8.33331 29.1667 17.6791 29.1667 29.1666V33.3333H25C22.7899 33.3333 20.6703 34.2113 19.1075 35.7741C17.5447 37.3369 16.6667 39.4565 16.6667 41.6666V83.3333C16.6667 85.5435 17.5447 87.6631 19.1075 89.2259C20.6703 90.7887 22.7899 91.6667 25 91.6667H75C77.2102 91.6667 79.3298 90.7887 80.8926 89.2259C82.4554 87.6631 83.3334 85.5435 83.3334 83.3333V41.6666C83.3334 39.4565 82.4554 37.3369 80.8926 35.7741C79.3298 34.2113 77.2102 33.3333 75 33.3333V33.3333ZM37.5 29.1666C37.5 22.275 43.1084 16.6666 50 16.6666C56.8917 16.6666 62.5 22.275 62.5 29.1666V33.3333H37.5V29.1666ZM54.1667 65.5125V75H45.8334V65.5125C43.3542 64.0708 41.6667 61.4125 41.6667 58.3333C41.6667 56.1232 42.5447 54.0036 44.1075 52.4408C45.6703 50.878 47.7899 50 50 50C52.2102 50 54.3298 50.878 55.8926 52.4408C57.4554 54.0036 58.3334 56.1232 58.3334 58.3333C58.3334 61.4083 56.6459 64.0666 54.1667 65.5125V65.5125Z" fill="#9B9B9B"/>
</svg>
