<svg width="100" height="100" viewBox="0 0 100 100" fill="none" xmlns="http://www.w3.org/2000/svg">
<path d="M68.1398 47.3065C68.9533 46.4929 68.9533 45.1737 68.1398 44.3602C67.3262 43.5467 66.0071 43.5467 65.1935 44.3602L50 59.5537L43.1398 52.6935C42.3262 51.88 41.0071 51.88 40.1935 52.6935C39.38 53.5071 39.38 54.8262 40.1935 55.6398L50 65.4462L68.1398 47.3065Z" fill="#393939"/>
<path fill-rule="evenodd" clip-rule="evenodd" d="M79.1666 31.25V75C79.1666 78.4519 76.3685 81.25 72.9166 81.25H35.4166C31.9648 81.25 29.1666 78.4519 29.1666 75V16.6667C29.1666 13.2149 31.9648 10.4167 35.4166 10.4167H58.3333L79.1666 31.25ZM58.3333 33.3333C57.1827 33.3333 56.25 32.4006 56.25 31.25V14.5833H35.4166C34.266 14.5833 33.3333 15.5161 33.3333 16.6667V75C33.3333 76.1506 34.266 77.0833 35.4166 77.0833H72.9166C74.0672 77.0833 75 76.1506 75 75V33.3333H58.3333ZM60.4166 18.3926L71.1908 29.1667H60.4166V18.3926Z" fill="#393939"/>
<path d="M25 22.9167V79.1667C25 82.6186 27.7982 85.4167 31.25 85.4167H70.8334V89.5833H31.25C25.4971 89.5833 20.8334 84.9196 20.8334 79.1667V22.9167H25Z" fill="#393939"/>
</svg>
