<svg width="144" height="144" viewBox="0 0 144 144" fill="none" xmlns="http://www.w3.org/2000/svg">
<g filter="url(#filter0_d_543_6552)">
<path d="M52 41.6667C53.841 41.6667 55.3334 40.1743 55.3334 38.3333C55.3334 36.4924 53.841 35 52 35C50.7662 35 49.689 35.6703 49.1127 36.6667H48.6667C45.9053 36.6667 43.6667 38.9052 43.6667 41.6667V56.6667H47V41.6667C47 40.7462 47.7462 40 48.6667 40H49.1127C49.689 40.9963 50.7662 41.6667 52 41.6667Z" fill="#ffffff"/>
<path fill-rule="evenodd" clip-rule="evenodd" d="M48.9337 56.6667H47H43.6667C42.7462 56.6667 41.9922 57.4145 42.0757 58.3312C42.4632 62.5832 44.3261 66.5867 47.3698 69.6303C49.6017 71.8622 52.3497 73.4592 55.3333 74.305V78.3333C55.3333 80.5107 56.725 82.3628 58.6673 83.049C58.7383 89.6615 64.1208 95 70.75 95C77.4235 95 82.8333 89.5902 82.8333 82.9167V76.25C82.8333 72.7982 85.6315 70 89.0833 70C92.5352 70 95.3333 72.7982 95.3333 76.25V80.2845C93.3913 80.9708 92 82.823 92 85C92 87.7615 94.2385 90 97 90C99.7615 90 102 87.7615 102 85C102 82.823 100.609 80.9708 98.6667 80.2845V76.25C98.6667 70.9573 94.376 66.6667 89.0833 66.6667C83.7907 66.6667 79.5 70.9573 79.5 76.25V82.9167C79.5 87.7492 75.5825 91.6667 70.75 91.6667C65.9615 91.6667 62.0715 87.8202 62.001 83.0485C63.9425 82.3618 65.3333 80.51 65.3333 78.3333V74.305C68.317 73.4592 71.0652 71.8622 73.297 69.6303C76.3407 66.5867 78.2035 62.5832 78.591 58.3312C78.6747 57.4145 77.9205 56.6667 77 56.6667V41.6667C77 38.9052 74.7615 36.6667 72 36.6667H71.554C70.9777 35.6703 69.9005 35 68.6667 35C66.8257 35 65.3333 36.4924 65.3333 38.3333C65.3333 40.1743 66.8257 41.6667 68.6667 41.6667C69.9005 41.6667 70.9777 40.9963 71.554 40H72C72.9205 40 73.6667 40.7462 73.6667 41.6667V56.6667H71.7332C70.8127 56.6667 70.081 57.4182 69.9242 58.3253C69.5842 60.291 68.6453 62.1195 67.2157 63.549C65.3905 65.3743 62.9148 66.3998 60.3333 66.3998C57.752 66.3998 55.2763 65.3743 53.451 63.549C52.0215 62.1195 51.0825 60.291 50.7425 58.3253C50.5857 57.4182 49.854 56.6667 48.9337 56.6667ZM72.9675 60H74.9583C74.3355 62.7327 72.9535 65.2598 70.94 67.2733C68.127 70.0863 64.3117 71.6667 60.3333 71.6667C56.3552 71.6667 52.5398 70.0863 49.7268 67.2733C47.7133 65.2598 46.3313 62.7327 45.7084 60H47.6992C48.2837 62.2152 49.446 64.258 51.094 65.906C53.5445 68.3565 56.868 69.7332 60.3333 69.7332C63.7988 69.7332 67.1223 68.3565 69.5728 65.906C71.2208 64.258 72.383 62.2152 72.9675 60ZM97 83.3333C97.9205 83.3333 98.6667 84.0795 98.6667 85C98.6667 85.9205 97.9205 86.6667 97 86.6667C96.0795 86.6667 95.3333 85.9205 95.3333 85C95.3333 84.0795 96.0795 83.3333 97 83.3333ZM62 75V78.3333C62 79.2538 61.2538 80 60.3333 80C59.4128 80 58.6667 79.2538 58.6667 78.3333V75H62Z" fill="#ffffff"/>
<rect x="22.5" y="15.5" width="99" height="99" rx="4.5" stroke="#ffffff" shape-rendering="crispEdges"/>
</g>
<defs>
<filter id="filter0_d_543_6552" x="0" y="0" width="144" height="144" filterUnits="userSpaceOnUse" color-interpolation-filters="sRGB">
<feFlood flood-opacity="0" result="BackgroundImageFix"/>
<feColorMatrix in="SourceAlpha" type="matrix" values="0 0 0 0 0 0 0 0 0 0 0 0 0 0 0 0 0 0 127 0" result="hardAlpha"/>
<feOffset dy="7"/>
<feGaussianBlur stdDeviation="11"/>
<feComposite in2="hardAlpha" operator="out"/>
<feColorMatrix type="matrix" values="0 0 0 0 0 0 0 0 0 0 0 0 0 0 0 0 0 0 0.25 0"/>
<feBlend mode="normal" in2="BackgroundImageFix" result="effect1_dropShadow_543_6552"/>
<feBlend mode="normal" in="SourceGraphic" in2="effect1_dropShadow_543_6552" result="shape"/>
</filter>
</defs>
</svg>
