<svg width="100" height="100" viewBox="0 0 100 100" fill="none" xmlns="http://www.w3.org/2000/svg">
<path fill-rule="evenodd" clip-rule="evenodd" d="M75 33.3333C75 29.8815 77.7981 27.0833 81.25 27.0833C84.7019 27.0833 87.5 29.8815 87.5 33.3333V75.6308L81.25 85.0058L75 75.6308V33.3333ZM81.25 31.25C80.0994 31.25 79.1667 32.1827 79.1667 33.3333V74.3692L81.25 77.4942L83.3333 74.3692V33.3333C83.3333 32.1827 82.4006 31.25 81.25 31.25Z" fill="#393939"/>
<path fill-rule="evenodd" clip-rule="evenodd" d="M85.4167 41.6667H77.0834V37.5H85.4167V41.6667Z" fill="#393939"/>
<path fill-rule="evenodd" clip-rule="evenodd" d="M20.8333 16.6667C18.5321 16.6667 16.6667 18.5321 16.6667 20.8333V79.165C16.6667 81.4662 18.5321 83.3317 20.8333 83.3317H62.5C64.8012 83.3317 66.6667 81.4662 66.6667 79.165V20.8333C66.6667 18.5321 64.8012 16.6667 62.5 16.6667H20.8333ZM12.5 20.8333C12.5 16.231 16.231 12.5 20.8333 12.5H62.5C67.1023 12.5 70.8333 16.231 70.8333 20.8333V79.165C70.8333 83.7675 67.1023 87.4983 62.5 87.4983H20.8333C16.231 87.4983 12.5 83.7675 12.5 79.165V20.8333Z" fill="#393939"/>
<path fill-rule="evenodd" clip-rule="evenodd" d="M41.6666 31.25C41.6666 30.0994 42.5993 29.1667 43.75 29.1667H60.4166C61.5673 29.1667 62.5 30.0994 62.5 31.25C62.5 32.4006 61.5673 33.3333 60.4166 33.3333H43.75C42.5993 33.3333 41.6666 32.4006 41.6666 31.25Z" fill="#393939"/>
<path fill-rule="evenodd" clip-rule="evenodd" d="M41.6666 39.5833C41.6666 38.4327 42.5993 37.5 43.75 37.5H60.4166C61.5673 37.5 62.5 38.4327 62.5 39.5833C62.5 40.734 61.5673 41.6667 60.4166 41.6667H43.75C42.5993 41.6667 41.6666 40.734 41.6666 39.5833Z" fill="#393939"/>
<path fill-rule="evenodd" clip-rule="evenodd" d="M41.6666 58.3333C41.6666 57.1827 42.5993 56.25 43.75 56.25H60.4166C61.5673 56.25 62.5 57.1827 62.5 58.3333C62.5 59.484 61.5673 60.4167 60.4166 60.4167H43.75C42.5993 60.4167 41.6666 59.484 41.6666 58.3333Z" fill="#393939"/>
<path fill-rule="evenodd" clip-rule="evenodd" d="M41.6666 66.6666C41.6666 65.516 42.5993 64.5833 43.75 64.5833H60.4166C61.5673 64.5833 62.5 65.516 62.5 66.6666C62.5 67.8173 61.5673 68.75 60.4166 68.75H43.75C42.5993 68.75 41.6666 67.8173 41.6666 66.6666Z" fill="#393939"/>
<path fill-rule="evenodd" clip-rule="evenodd" d="M25 58.3333V64.5833H31.25V58.3333H25ZM22.9167 54.1667H33.3334C34.484 54.1667 35.4167 55.0994 35.4167 56.25V66.6667C35.4167 67.8173 34.484 68.75 33.3334 68.75H22.9167C21.7661 68.75 20.8334 67.8173 20.8334 66.6667V56.25C20.8334 55.0994 21.7661 54.1667 22.9167 54.1667Z" fill="#393939"/>
<path fill-rule="evenodd" clip-rule="evenodd" d="M36.8898 29.7769C37.7034 30.5904 37.7034 31.9096 36.8898 32.7231L27.0834 42.5296L21.4436 36.8898C20.63 36.0762 20.63 34.7571 21.4436 33.9435C22.2571 33.13 23.5763 33.13 24.3898 33.9435L27.0834 36.6371L33.9436 29.7769C34.7571 28.9633 36.0763 28.9633 36.8898 29.7769Z" fill="#393939"/>
</svg>
