<svg width="100" height="100" viewBox="0 0 100 100" fill="none" xmlns="http://www.w3.org/2000/svg">
<path fill-rule="evenodd" clip-rule="evenodd" d="M30.2846 16.3618C27.9834 16.3618 26.1179 18.2273 26.1179 20.5285V78.8601C26.1179 81.1614 27.9834 83.0268 30.2846 83.0268H71.9512C74.2525 83.0268 76.1179 81.1614 76.1179 78.8601V20.5285C76.1179 18.2273 74.2525 16.3618 71.9512 16.3618H30.2846ZM21.9512 20.5285C21.9512 15.9261 25.6822 12.1951 30.2846 12.1951H71.9512C76.5535 12.1951 80.2846 15.9261 80.2846 20.5285V78.8601C80.2846 83.4626 76.5535 87.1935 71.9512 87.1935H30.2846C25.6822 87.1935 21.9512 83.4626 21.9512 78.8601V20.5285Z" fill="#393939"/>
<path fill-rule="evenodd" clip-rule="evenodd" d="M51.1194 30.9451C51.1194 29.7945 52.0522 28.8618 53.2028 28.8618H69.8694C71.0201 28.8618 71.9528 29.7945 71.9528 30.9451C71.9528 32.0958 71.0201 33.0285 69.8694 33.0285H53.2028C52.0522 33.0285 51.1194 32.0958 51.1194 30.9451Z" fill="#393939"/>
<path fill-rule="evenodd" clip-rule="evenodd" d="M51.1194 39.2785C51.1194 38.1278 52.0522 37.1951 53.2028 37.1951H69.8694C71.0201 37.1951 71.9528 38.1278 71.9528 39.2785C71.9528 40.4291 71.0201 41.3618 69.8694 41.3618H53.2028C52.0522 41.3618 51.1194 40.4291 51.1194 39.2785Z" fill="#393939"/>
<path fill-rule="evenodd" clip-rule="evenodd" d="M51.1194 58.0285C51.1194 56.8778 52.0522 55.9451 53.2028 55.9451H69.8694C71.0201 55.9451 71.9528 56.8778 71.9528 58.0285C71.9528 59.1791 71.0201 60.1118 69.8694 60.1118H53.2028C52.0522 60.1118 51.1194 59.1791 51.1194 58.0285Z" fill="#393939"/>
<path fill-rule="evenodd" clip-rule="evenodd" d="M51.1194 66.3618C51.1194 65.2112 52.0522 64.2784 53.2028 64.2784H69.8694C71.0201 64.2784 71.9528 65.2112 71.9528 66.3618C71.9528 67.5124 71.0201 68.4451 69.8694 68.4451H53.2028C52.0522 68.4451 51.1194 67.5124 51.1194 66.3618Z" fill="#393939"/>
<path fill-rule="evenodd" clip-rule="evenodd" d="M46.3394 29.472C47.153 30.2855 47.153 31.6047 46.3394 32.4182L36.533 42.2247L30.8932 36.5849C30.0796 35.7713 30.0796 34.4522 30.8932 33.6386C31.7067 32.8251 33.0259 32.8251 33.8394 33.6386L36.533 36.3322L43.3932 29.472C44.2067 28.6584 45.5259 28.6584 46.3394 29.472Z" fill="#393939"/>
<path fill-rule="evenodd" clip-rule="evenodd" d="M47.7638 56.7077C48.5773 57.5213 48.5773 58.8404 47.7638 59.654L37.9573 69.4604L32.3175 63.8206C31.5039 63.0071 31.5039 61.6879 32.3175 60.8744C33.1311 60.0608 34.4502 60.0608 35.2638 60.8744L37.9573 63.5679L44.8175 56.7077C45.6311 55.8942 46.9502 55.8942 47.7638 56.7077Z" fill="#393939"/>
</svg>
