<svg width="100" height="100" viewBox="0 0 100 100" fill="none" xmlns="http://www.w3.org/2000/svg">
<path fill-rule="evenodd" clip-rule="evenodd" d="M35.4167 14.5833C35.4167 11.1315 38.2148 8.33331 41.6667 8.33331H58.3334C61.7852 8.33331 64.5834 11.1315 64.5834 14.5833H72.9167C76.3686 14.5833 79.1667 17.3815 79.1667 20.8333V85.4167C79.1667 88.8685 76.3686 91.6667 72.9167 91.6667H27.0834C23.6315 91.6667 20.8334 88.8685 20.8334 85.4167V20.8333C20.8334 17.3815 23.6315 14.5833 27.0834 14.5833H35.4167ZM35.4167 18.75H27.0834C25.9327 18.75 25 19.6827 25 20.8333V43.7262H36.7346L43.7932 31.1779L48.2036 46.6146L53.6009 39.6754H65.0365C66.1871 39.6754 67.1198 40.6081 67.1198 41.7587C67.1198 42.9094 66.1871 43.8421 65.0365 43.8421H55.6388L46.4525 55.6527L42.5298 41.9229L39.1715 47.8929H25V85.4167C25 86.5673 25.9327 87.5 27.0834 87.5H72.9167C74.0673 87.5 75 86.5673 75 85.4167V20.8333C75 19.6827 74.0673 18.75 72.9167 18.75H64.5834C64.5834 22.2019 61.7852 25 58.3334 25H41.6667C38.2148 25 35.4167 22.2019 35.4167 18.75ZM41.6667 12.5C40.5161 12.5 39.5834 13.4327 39.5834 14.5833V18.75C39.5834 19.9006 40.5161 20.8333 41.6667 20.8333H58.3334C59.484 20.8333 60.4167 19.9006 60.4167 18.75V14.5833C60.4167 13.4327 59.484 12.5 58.3334 12.5H41.6667ZM33.3334 64.5833C33.3334 63.4327 34.2661 62.5 35.4167 62.5H64.5834C65.734 62.5 66.6667 63.4327 66.6667 64.5833C66.6667 65.7339 65.734 66.6667 64.5834 66.6667H35.4167C34.2661 66.6667 33.3334 65.7339 33.3334 64.5833ZM33.3334 77.0833C33.3334 75.9327 34.2661 75 35.4167 75H47.9167C49.0673 75 50 75.9327 50 77.0833C50 78.2339 49.0673 79.1667 47.9167 79.1667H35.4167C34.2661 79.1667 33.3334 78.2339 33.3334 77.0833Z" fill="#393939"/>
</svg>
