<svg width="144" height="144" viewBox="0 0 144 144" fill="none" xmlns="http://www.w3.org/2000/svg">
<g filter="url(#filter0_d_543_6546)">
<path d="M52 73.3334C51.0795 73.3334 50.3334 74.0795 50.3334 75C50.3334 75.9205 51.0795 76.6667 52 76.6667H75.3334C76.2539 76.6667 77 75.9205 77 75C77 74.0795 76.2539 73.3334 75.3334 73.3334H52Z" fill="#ffffff"/>
<path d="M50.3334 83.3333C50.3334 82.4128 51.0795 81.6666 52 81.6666H65.3334C66.2539 81.6666 67 82.4128 67 83.3333C67 84.2538 66.2539 85 65.3334 85H52C51.0795 85 50.3334 84.2538 50.3334 83.3333Z" fill="#ffffff"/>
<path fill-rule="evenodd" clip-rule="evenodd" d="M52 40C52 37.2386 54.2385 35 57 35H70.3333C73.0948 35 75.3333 37.2386 75.3333 40H80.3333C83.0948 40 85.3333 42.2385 85.3333 45V90C85.3333 92.7615 83.0948 95 80.3333 95H47C44.2386 95 42 92.7615 42 90V45C42 42.2385 44.2386 40 47 40H52ZM45.3333 63.3333H55.6188L58.0685 59.223L61.0935 70.3253L67.816 61.6667H74.9467C75.8672 61.6667 76.6133 60.9203 76.6133 60C76.6133 59.0795 75.8672 58.3333 74.9467 58.3333H66.184L62.5547 63.0078L59.2222 50.7768L53.725 60H45.3333V45C45.3333 44.0795 46.0795 43.3333 47 43.3333H52C52 46.0948 54.2385 48.3333 57 48.3333H70.3333C73.0948 48.3333 75.3333 46.0948 75.3333 43.3333H80.3333C81.2538 43.3333 82 44.0795 82 45V90C82 90.9205 81.2538 91.6667 80.3333 91.6667H47C46.0795 91.6667 45.3333 90.9205 45.3333 90V63.3333ZM72 40V43.3333C72 44.2538 71.2538 45 70.3333 45H57C56.0795 45 55.3333 44.2538 55.3333 43.3333V40C55.3333 39.0795 56.0795 38.3333 57 38.3333H70.3333C71.2538 38.3333 72 39.0795 72 40Z" fill="#ffffff"/>
<path fill-rule="evenodd" clip-rule="evenodd" d="M97 48.3334C94.2385 48.3334 92 50.5719 92 53.3334V87.1714L97 94.6714L102 87.1714V53.3334C102 50.5719 99.7615 48.3334 97 48.3334ZM95.3333 53.3334C95.3333 52.4129 96.0795 51.6667 97 51.6667C97.9205 51.6667 98.6667 52.4129 98.6667 53.3334V56.6667H95.3333V53.3334ZM95.3333 86.162V60H98.6667V86.162L97 88.662L95.3333 86.162Z" fill="#ffffff"/>
<rect x="22.5" y="15.5" width="99" height="99" rx="4.5" stroke="#ffffff" shape-rendering="crispEdges"/>
</g>
<defs>
<filter id="filter0_d_543_6546" x="0" y="0" width="144" height="144" filterUnits="userSpaceOnUse" color-interpolation-filters="sRGB">
<feFlood flood-opacity="0" result="BackgroundImageFix"/>
<feColorMatrix in="SourceAlpha" type="matrix" values="0 0 0 0 0 0 0 0 0 0 0 0 0 0 0 0 0 0 127 0" result="hardAlpha"/>
<feOffset dy="7"/>
<feGaussianBlur stdDeviation="11"/>
<feComposite in2="hardAlpha" operator="out"/>
<feColorMatrix type="matrix" values="0 0 0 0 0 0 0 0 0 0 0 0 0 0 0 0 0 0 0.25 0"/>
<feBlend mode="normal" in2="BackgroundImageFix" result="effect1_dropShadow_543_6546"/>
<feBlend mode="normal" in="SourceGraphic" in2="effect1_dropShadow_543_6546" result="shape"/>
</filter>
</defs>
</svg>
