<svg width="100" height="100" viewBox="0 0 100 100" fill="none" xmlns="http://www.w3.org/2000/svg">
<path d="M70.8333 34.375C72.2147 34.375 73.5394 33.8262 74.5162 32.8495C75.4929 31.8727 76.0417 30.548 76.0417 29.1666C76.0417 27.7853 75.4929 26.4605 74.5162 25.4838C73.5394 24.507 72.2147 23.9583 70.8333 23.9583C69.452 23.9583 68.1272 24.507 67.1505 25.4838C66.1737 26.4605 65.625 27.7853 65.625 29.1666C65.625 30.548 66.1737 31.8727 67.1505 32.8495C68.1272 33.8262 69.452 34.375 70.8333 34.375ZM37.2917 35.8333C37.2961 28.5964 40.1729 21.6573 45.2901 16.54C50.4073 11.4228 57.3465 8.54604 64.5833 8.54163C79.5667 8.54163 91.875 20.2875 91.875 35.4166C91.8834 41.1866 90.0516 46.809 86.6458 51.4666C85.0198 50.14 83.2336 49.023 81.3292 48.1416C84.1178 44.4861 85.626 40.0144 85.6208 35.4166C85.6208 23.8791 76.2583 14.7916 64.5792 14.7916C58.9999 14.796 53.6505 17.0143 49.7053 20.9595C45.7602 24.9046 43.5419 30.2541 43.5375 35.8333C43.5375 36.925 43.6792 38.0791 43.9042 39.3541C44.1151 40.5231 44.0412 41.7258 43.6887 42.8601C43.3362 43.9945 42.7155 45.0272 41.8792 45.8708L15.8958 71.85C15.4122 72.3337 15.0286 72.908 14.767 73.54C14.5053 74.1719 14.3707 74.8493 14.3708 75.5333V84.5833C14.3708 85.1583 14.8375 85.625 15.4125 85.625H25.8292C26.1054 85.625 26.3704 85.5152 26.5657 85.3199C26.7611 85.1245 26.8708 84.8596 26.8708 84.5833V78.3333C26.8708 75.4583 29.2042 73.125 32.0792 73.125H39.3708V65.8333C39.3708 63.125 41.4417 60.8958 44.0875 60.6458L48.575 65.1375C47.9601 65.6283 47.4283 66.215 47 66.875H45.625V74.1666C45.625 77.0416 43.2917 79.375 40.4167 79.375H33.125V84.5833C33.125 86.5172 32.3568 88.3718 30.9893 89.7393C29.6219 91.1067 27.7672 91.875 25.8333 91.875H15.4167C13.4828 91.875 11.6281 91.1067 10.2607 89.7393C8.89323 88.3718 8.125 86.5172 8.125 84.5833V75.5333C8.125 72.4916 9.32917 69.5791 11.4792 67.4333L37.4583 41.45C37.5851 41.3164 37.6777 41.1543 37.7285 40.9773C37.7793 40.8003 37.7866 40.6137 37.75 40.4333C37.4641 38.9162 37.3107 37.377 37.2917 35.8333ZM57.4167 47C57.7237 46.7139 57.97 46.3689 58.1408 45.9855C58.3116 45.6022 58.4034 45.1884 58.4108 44.7688C58.4182 44.3492 58.341 43.9324 58.1838 43.5433C58.0267 43.1542 57.7927 42.8007 57.496 42.504C57.1993 42.2072 56.8458 41.9733 56.4567 41.8161C56.0675 41.6589 55.6508 41.5818 55.2312 41.5892C54.8116 41.5966 54.3978 41.6884 54.0144 41.8592C53.6311 42.03 53.2861 42.2763 53 42.5833L44.6667 50.9166C44.0815 51.5026 43.7528 52.2968 43.7528 53.125C43.7528 53.9531 44.0815 54.7474 44.6667 55.3333L53 63.6666C53.2861 63.9737 53.6311 64.2199 54.0144 64.3907C54.3978 64.5615 54.8116 64.6534 55.2312 64.6608C55.6508 64.6682 56.0675 64.591 56.4567 64.4338C56.8458 64.2766 57.1993 64.0427 57.496 63.746C57.7927 63.4492 58.0267 63.0957 58.1838 62.7066C58.341 62.3175 58.4182 61.9007 58.4108 61.4811C58.4034 61.0615 58.3116 60.6477 58.1408 60.2644C57.97 59.8811 57.7237 59.5361 57.4167 59.25L54.4167 56.25H70.8333C73.7177 56.25 76.5372 57.1053 78.9354 58.7077C81.3336 60.3101 83.2028 62.5877 84.3066 65.2525C85.4104 67.9173 85.6992 70.8495 85.1365 73.6784C84.5738 76.5073 83.1848 79.1058 81.1453 81.1453C79.1058 83.1848 76.5073 84.5737 73.6784 85.1364C70.8495 85.6991 67.9173 85.4103 65.2525 84.3065C62.5878 83.2028 60.3102 81.3336 58.7077 78.9354C57.1053 76.5372 56.25 73.7176 56.25 70.8333C56.25 70.0045 55.9208 69.2096 55.3347 68.6236C54.7487 68.0375 53.9538 67.7083 53.125 67.7083C52.2962 67.7083 51.5013 68.0375 50.9153 68.6236C50.3292 69.2096 50 70.0045 50 70.8333C50 74.9537 51.2219 78.9817 53.5111 82.4077C55.8003 85.8337 59.054 88.504 62.8608 90.0808C66.6676 91.6576 70.8564 92.0702 74.8977 91.2663C78.939 90.4625 82.6511 88.4783 85.5647 85.5647C88.4783 82.6511 90.4625 78.939 91.2664 74.8977C92.0702 70.8564 91.6577 66.6675 90.0808 62.8607C88.504 59.0539 85.8337 55.8002 82.4077 53.511C78.9817 51.2218 74.9538 50 70.8333 50H54.4167L57.4167 47V47Z" fill="#794B93"/>
</svg>
