<svg width="100" height="100" viewBox="0 0 100 100" fill="none" xmlns="http://www.w3.org/2000/svg">
<path fill-rule="evenodd" clip-rule="evenodd" d="M72.9167 83.3333C75.6793 83.3333 78.3289 82.2359 80.2824 80.2824C82.2359 78.3289 83.3333 75.6793 83.3333 72.9167C83.3333 70.154 82.2359 67.5045 80.2824 65.551C78.3289 63.5975 75.6793 62.5 72.9167 62.5C70.154 62.5 67.5045 63.5975 65.551 65.551C63.5975 67.5045 62.5 70.154 62.5 72.9167C62.5 75.6793 63.5975 78.3289 65.551 80.2824C67.5045 82.2359 70.154 83.3333 72.9167 83.3333ZM72.9167 87.5C76.7844 87.5 80.4937 85.9635 83.2286 83.2286C85.9635 80.4937 87.5 76.7844 87.5 72.9167C87.5 69.0489 85.9635 65.3396 83.2286 62.6047C80.4937 59.8698 76.7844 58.3333 72.9167 58.3333C69.0489 58.3333 65.3396 59.8698 62.6047 62.6047C59.8698 65.3396 58.3333 69.0489 58.3333 72.9167C58.3333 76.7844 59.8698 80.4937 62.6047 83.2286C65.3396 85.9635 69.0489 87.5 72.9167 87.5V87.5Z" fill="#393939"/>
<path fill-rule="evenodd" clip-rule="evenodd" d="M72.9167 65.625C73.4692 65.625 73.9991 65.8445 74.3898 66.2352C74.7805 66.6259 75 67.1558 75 67.7083V72.0542L76.4729 73.5271C76.8524 73.92 77.0624 74.4463 77.0577 74.9925C77.0529 75.5387 76.8338 76.0613 76.4476 76.4475C76.0613 76.8338 75.5388 77.0529 74.9925 77.0577C74.4463 77.0624 73.92 76.8524 73.5271 76.4729L70.8333 73.7792V67.7083C70.8333 67.1558 71.0528 66.6259 71.4435 66.2352C71.8342 65.8445 72.3641 65.625 72.9167 65.625ZM29.1667 47.9167H25V52.0833H29.1667V47.9167ZM25 43.75C23.8949 43.75 22.8351 44.189 22.0537 44.9704C21.2723 45.7518 20.8333 46.8116 20.8333 47.9167V52.0833C20.8333 53.1884 21.2723 54.2482 22.0537 55.0296C22.8351 55.811 23.8949 56.25 25 56.25H29.1667C30.2717 56.25 31.3316 55.811 32.113 55.0296C32.8944 54.2482 33.3333 53.1884 33.3333 52.0833V47.9167C33.3333 46.8116 32.8944 45.7518 32.113 44.9704C31.3316 44.189 30.2717 43.75 29.1667 43.75H25ZM45.8333 47.9167H41.6667V52.0833H45.8333V47.9167ZM41.6667 43.75C40.5616 43.75 39.5018 44.189 38.7204 44.9704C37.939 45.7518 37.5 46.8116 37.5 47.9167V52.0833C37.5 53.1884 37.939 54.2482 38.7204 55.0296C39.5018 55.811 40.5616 56.25 41.6667 56.25H45.8333C46.9384 56.25 47.9982 55.811 48.7796 55.0296C49.561 54.2482 50 53.1884 50 52.0833V47.9167C50 46.8116 49.561 45.7518 48.7796 44.9704C47.9982 44.189 46.9384 43.75 45.8333 43.75H41.6667ZM62.5 47.9167H58.3333V52.0833H62.5V47.9167ZM58.3333 43.75C57.2283 43.75 56.1685 44.189 55.3871 44.9704C54.6057 45.7518 54.1667 46.8116 54.1667 47.9167V52.0833C54.1667 53.1884 54.6057 54.2482 55.3871 55.0296C56.1685 55.811 57.2283 56.25 58.3333 56.25H62.5C63.6051 56.25 64.6649 55.811 65.4463 55.0296C66.2277 54.2482 66.6667 53.1884 66.6667 52.0833V47.9167C66.6667 46.8116 66.2277 45.7518 65.4463 44.9704C64.6649 44.189 63.6051 43.75 62.5 43.75H58.3333ZM29.1667 64.5833H25V68.75H29.1667V64.5833ZM25 60.4167C23.8949 60.4167 22.8351 60.8557 22.0537 61.6371C21.2723 62.4185 20.8333 63.4783 20.8333 64.5833V68.75C20.8333 69.8551 21.2723 70.9149 22.0537 71.6963C22.8351 72.4777 23.8949 72.9167 25 72.9167H29.1667C30.2717 72.9167 31.3316 72.4777 32.113 71.6963C32.8944 70.9149 33.3333 69.8551 33.3333 68.75V64.5833C33.3333 63.4783 32.8944 62.4185 32.113 61.6371C31.3316 60.8557 30.2717 60.4167 29.1667 60.4167H25ZM45.8333 64.5833H41.6667V68.75H45.8333V64.5833ZM41.6667 60.4167C40.5616 60.4167 39.5018 60.8557 38.7204 61.6371C37.939 62.4185 37.5 63.4783 37.5 64.5833V68.75C37.5 69.8551 37.939 70.9149 38.7204 71.6963C39.5018 72.4777 40.5616 72.9167 41.6667 72.9167H45.8333C46.9384 72.9167 47.9982 72.4777 48.7796 71.6963C49.561 70.9149 50 69.8551 50 68.75V64.5833C50 63.4783 49.561 62.4185 48.7796 61.6371C47.9982 60.8557 46.9384 60.4167 45.8333 60.4167H41.6667Z" fill="#393939"/>
<path fill-rule="evenodd" clip-rule="evenodd" d="M16.6667 25C16.6667 24.4475 16.8862 23.9176 17.2769 23.5269C17.6676 23.1362 18.1975 22.9167 18.75 22.9167H29.1667V18.75H18.75C17.0924 18.75 15.5027 19.4085 14.3306 20.5806C13.1585 21.7527 12.5 23.3424 12.5 25V75C12.5 76.6576 13.1585 78.2473 14.3306 79.4194C15.5027 80.5915 17.0924 81.25 18.75 81.25H60.9479C60.0595 79.9774 59.3807 78.5707 58.9375 77.0833H18.75C18.1975 77.0833 17.6676 76.8638 17.2769 76.4731C16.8862 76.0824 16.6667 75.5525 16.6667 75V25ZM70.8333 58.4792C72.2152 58.2815 73.6181 58.2815 75 58.4792V25C75 23.3424 74.3415 21.7527 73.1694 20.5806C71.9973 19.4085 70.4076 18.75 68.75 18.75H62.5V22.9167H68.75C69.3025 22.9167 69.8324 23.1362 70.2231 23.5269C70.6138 23.9176 70.8333 24.4475 70.8333 25V58.4792ZM33.3333 22.9167H55.3396V18.75H33.3333V22.9167Z" fill="#393939"/>
<path fill-rule="evenodd" clip-rule="evenodd" d="M75 37.5H16.6667V33.3333H75V37.5Z" fill="#393939"/>
<path d="M25 14.5833C25 14.0308 25.2195 13.5009 25.6102 13.1102C26.0009 12.7195 26.5308 12.5 27.0833 12.5C27.6359 12.5 28.1658 12.7195 28.5565 13.1102C28.9472 13.5009 29.1667 14.0308 29.1667 14.5833V25C29.1667 25.5525 28.9472 26.0824 28.5565 26.4731C28.1658 26.8638 27.6359 27.0833 27.0833 27.0833C26.5308 27.0833 26.0009 26.8638 25.6102 26.4731C25.2195 26.0824 25 25.5525 25 25V14.5833ZM54.1667 14.5833C54.1667 14.0308 54.3862 13.5009 54.7769 13.1102C55.1676 12.7195 55.6975 12.5 56.25 12.5C56.8025 12.5 57.3324 12.7195 57.7231 13.1102C58.1138 13.5009 58.3333 14.0308 58.3333 14.5833V25C58.3333 25.5525 58.1138 26.0824 57.7231 26.4731C57.3324 26.8638 56.8025 27.0833 56.25 27.0833C55.6975 27.0833 55.1676 26.8638 54.7769 26.4731C54.3862 26.0824 54.1667 25.5525 54.1667 25V14.5833Z" fill="#393939"/>
</svg>
