<svg width="144" height="144" viewBox="0 0 144 144" fill="none" xmlns="http://www.w3.org/2000/svg">
<g filter="url(#filter0_d_543_6561)">
<path fill-rule="evenodd" clip-rule="evenodd" d="M90.3333 91.6667C92.5434 91.6667 94.663 90.7887 96.2258 89.2259C97.7887 87.6631 98.6666 85.5435 98.6666 83.3334C98.6666 81.1232 97.7887 79.0036 96.2258 77.4408C94.663 75.878 92.5434 75 90.3333 75C88.1232 75 86.0035 75.878 84.4407 77.4408C82.8779 79.0036 82 81.1232 82 83.3334C82 85.5435 82.8779 87.6631 84.4407 89.2259C86.0035 90.7887 88.1232 91.6667 90.3333 91.6667ZM90.3333 95C93.4275 95 96.395 93.7709 98.5829 91.5829C100.771 89.395 102 86.4275 102 83.3334C102 80.2392 100.771 77.2717 98.5829 75.0838C96.395 72.8959 93.4275 71.6667 90.3333 71.6667C87.2391 71.6667 84.2716 72.8959 82.0837 75.0838C79.8958 77.2717 78.6666 80.2392 78.6666 83.3334C78.6666 86.4275 79.8958 89.395 82.0837 91.5829C84.2716 93.7709 87.2391 95 90.3333 95V95Z" fill="#64387E"/>
<path fill-rule="evenodd" clip-rule="evenodd" d="M90.3333 77.5C90.7753 77.5 91.1992 77.6756 91.5118 77.9882C91.8244 78.3007 92 78.7246 92 79.1667V82.6433L93.1783 83.8217C93.4819 84.136 93.6499 84.557 93.6461 84.994C93.6423 85.431 93.467 85.849 93.158 86.158C92.849 86.4671 92.431 86.6423 91.994 86.6461C91.557 86.6499 91.136 86.4819 90.8216 86.1783L88.6666 84.0233V79.1667C88.6666 78.7246 88.8422 78.3007 89.1548 77.9882C89.4673 77.6756 89.8913 77.5 90.3333 77.5ZM55.3333 63.3333H52V66.6667H55.3333V63.3333ZM52 60C51.1159 60 50.2681 60.3512 49.6429 60.9763C49.0178 61.6014 48.6666 62.4493 48.6666 63.3333V66.6667C48.6666 67.5507 49.0178 68.3986 49.6429 69.0237C50.2681 69.6488 51.1159 70 52 70H55.3333C56.2173 70 57.0652 69.6488 57.6903 69.0237C58.3154 68.3986 58.6666 67.5507 58.6666 66.6667V63.3333C58.6666 62.4493 58.3154 61.6014 57.6903 60.9763C57.0652 60.3512 56.2173 60 55.3333 60H52ZM68.6666 63.3333H65.3333V66.6667H68.6666V63.3333ZM65.3333 60C64.4492 60 63.6014 60.3512 62.9763 60.9763C62.3512 61.6014 62 62.4493 62 63.3333V66.6667C62 67.5507 62.3512 68.3986 62.9763 69.0237C63.6014 69.6488 64.4492 70 65.3333 70H68.6666C69.5507 70 70.3985 69.6488 71.0236 69.0237C71.6488 68.3986 72 67.5507 72 66.6667V63.3333C72 62.4493 71.6488 61.6014 71.0236 60.9763C70.3985 60.3512 69.5507 60 68.6666 60H65.3333ZM82 63.3333H78.6666V66.6667H82V63.3333ZM78.6666 60C77.7826 60 76.9347 60.3512 76.3096 60.9763C75.6845 61.6014 75.3333 62.4493 75.3333 63.3333V66.6667C75.3333 67.5507 75.6845 68.3986 76.3096 69.0237C76.9347 69.6488 77.7826 70 78.6666 70H82C82.884 70 83.7319 69.6488 84.357 69.0237C84.9821 68.3986 85.3333 67.5507 85.3333 66.6667V63.3333C85.3333 62.4493 84.9821 61.6014 84.357 60.9763C83.7319 60.3512 82.884 60 82 60H78.6666ZM55.3333 76.6667H52V80H55.3333V76.6667ZM52 73.3333C51.1159 73.3333 50.2681 73.6845 49.6429 74.3096C49.0178 74.9348 48.6666 75.7826 48.6666 76.6667V80C48.6666 80.8841 49.0178 81.7319 49.6429 82.357C50.2681 82.9821 51.1159 83.3333 52 83.3333H55.3333C56.2173 83.3333 57.0652 82.9821 57.6903 82.357C58.3154 81.7319 58.6666 80.8841 58.6666 80V76.6667C58.6666 75.7826 58.3154 74.9348 57.6903 74.3096C57.0652 73.6845 56.2173 73.3333 55.3333 73.3333H52ZM68.6666 76.6667H65.3333V80H68.6666V76.6667ZM65.3333 73.3333C64.4492 73.3333 63.6014 73.6845 62.9763 74.3096C62.3512 74.9348 62 75.7826 62 76.6667V80C62 80.8841 62.3512 81.7319 62.9763 82.357C63.6014 82.9821 64.4492 83.3333 65.3333 83.3333H68.6666C69.5507 83.3333 70.3985 82.9821 71.0236 82.357C71.6488 81.7319 72 80.8841 72 80V76.6667C72 75.7826 71.6488 74.9348 71.0236 74.3096C70.3985 73.6845 69.5507 73.3333 68.6666 73.3333H65.3333Z" fill="#64387E"/>
<path fill-rule="evenodd" clip-rule="evenodd" d="M45.3333 45C45.3333 44.558 45.5089 44.134 45.8215 43.8215C46.134 43.5089 46.558 43.3333 47 43.3333H55.3333V40H47C45.6739 40 44.4021 40.5268 43.4645 41.4645C42.5268 42.4021 42 43.6739 42 45V85C42 86.3261 42.5268 87.5978 43.4645 88.5355C44.4021 89.4732 45.6739 90 47 90H80.7583C80.0476 88.9819 79.5046 87.8566 79.15 86.6667H47C46.558 86.6667 46.134 86.4911 45.8215 86.1785C45.5089 85.866 45.3333 85.442 45.3333 85V45ZM88.6667 71.7833C89.7722 71.6252 90.8945 71.6252 92 71.7833V45C92 43.6739 91.4732 42.4021 90.5355 41.4645C89.5978 40.5268 88.3261 40 87 40H82V43.3333H87C87.442 43.3333 87.866 43.5089 88.1785 43.8215C88.4911 44.134 88.6667 44.558 88.6667 45V71.7833ZM58.6667 43.3333H76.2717V40H58.6667V43.3333Z" fill="#64387E"/>
<path fill-rule="evenodd" clip-rule="evenodd" d="M92 55H45.3334V51.6667H92V55Z" fill="#64387E"/>
<path d="M52 36.6667C52 36.2246 52.1756 35.8007 52.4882 35.4882C52.8007 35.1756 53.2246 35 53.6667 35C54.1087 35 54.5326 35.1756 54.8452 35.4882C55.1577 35.8007 55.3333 36.2246 55.3333 36.6667V45C55.3333 45.442 55.1577 45.866 54.8452 46.1785C54.5326 46.4911 54.1087 46.6667 53.6667 46.6667C53.2246 46.6667 52.8007 46.4911 52.4882 46.1785C52.1756 45.866 52 45.442 52 45V36.6667ZM75.3333 36.6667C75.3333 36.2246 75.5089 35.8007 75.8215 35.4882C76.134 35.1756 76.558 35 77 35C77.442 35 77.866 35.1756 78.1785 35.4882C78.4911 35.8007 78.6667 36.2246 78.6667 36.6667V45C78.6667 45.442 78.4911 45.866 78.1785 46.1785C77.866 46.4911 77.442 46.6667 77 46.6667C76.558 46.6667 76.134 46.4911 75.8215 46.1785C75.5089 45.866 75.3333 45.442 75.3333 45V36.6667Z" fill="#64387E"/>
<rect x="22.5" y="15.5" width="99" height="99" rx="4.5" stroke="#50266A" shape-rendering="crispEdges"/>
</g>
<defs>
<filter id="filter0_d_543_6561" x="0" y="0" width="144" height="144" filterUnits="userSpaceOnUse" color-interpolation-filters="sRGB">
<feFlood flood-opacity="0" result="BackgroundImageFix"/>
<feColorMatrix in="SourceAlpha" type="matrix" values="0 0 0 0 0 0 0 0 0 0 0 0 0 0 0 0 0 0 127 0" result="hardAlpha"/>
<feOffset dy="7"/>
<feGaussianBlur stdDeviation="11"/>
<feComposite in2="hardAlpha" operator="out"/>
<feColorMatrix type="matrix" values="0 0 0 0 0 0 0 0 0 0 0 0 0 0 0 0 0 0 0.25 0"/>
<feBlend mode="normal" in2="BackgroundImageFix" result="effect1_dropShadow_543_6561"/>
<feBlend mode="normal" in="SourceGraphic" in2="effect1_dropShadow_543_6561" result="shape"/>
</filter>
</defs>
</svg>
