<svg width="100" height="100" viewBox="0 0 100 100" fill="none" xmlns="http://www.w3.org/2000/svg">
<path fill-rule="evenodd" clip-rule="evenodd" d="M68.0209 62.0792L90.4375 84.4958C91.2254 85.2843 91.6679 86.3535 91.6675 87.4681C91.6671 88.5828 91.2239 89.6517 90.4354 90.4396C89.647 91.2275 88.5778 91.6699 87.4631 91.6695C86.3485 91.6692 85.2796 91.226 84.4917 90.4375L62.075 68.0208C55.3738 73.2112 46.947 75.6537 38.5089 74.8515C30.0708 74.0493 22.2552 70.0626 16.652 63.7026C11.0489 57.3425 8.07916 49.0867 8.34691 40.6148C8.61467 32.1428 12.0998 24.0911 18.0934 18.0975C24.0869 12.104 32.1387 8.61882 40.6106 8.35106C49.0826 8.08331 57.3383 11.0531 63.6984 16.6562C70.0585 22.2593 74.0451 30.0749 74.8473 38.513C75.6495 46.9512 73.207 55.378 68.0167 62.0792H68.0209ZM41.6667 66.6667C48.2971 66.6667 54.656 64.0328 59.3444 59.3443C64.0328 54.6559 66.6667 48.2971 66.6667 41.6667C66.6667 35.0363 64.0328 28.6774 59.3444 23.989C54.656 19.3006 48.2971 16.6667 41.6667 16.6667C35.0363 16.6667 28.6774 19.3006 23.989 23.989C19.3006 28.6774 16.6667 35.0363 16.6667 41.6667C16.6667 48.2971 19.3006 54.6559 23.989 59.3443C28.6774 64.0328 35.0363 66.6667 41.6667 66.6667V66.6667Z" fill="#9B9B9B"/>
</svg>
