<svg width="100" height="100" viewBox="0 0 100 100" fill="none" xmlns="http://www.w3.org/2000/svg">
<path d="M77.7375 10.425V43.75H71.1875V16.775H70.8688L63.3 22.1438V16.0875L71.1875 10.425H77.725H77.7375Z" fill="black"/>
<path fill-rule="evenodd" clip-rule="evenodd" d="M71 88.1125C63.8938 88.1125 60.325 84.0063 59.9875 80.125H66.2625C66.625 81.5188 68.4063 82.9375 71.0938 82.9375C76.2438 82.9375 78.3688 77.7562 78.175 71.3375H77.8063C76.8813 73.775 74.2438 75.975 69.925 75.975C64.2375 75.975 59.175 72.1438 59.175 64.9875C59.175 57.8125 64.475 53.5188 71.5063 53.5188C78.3188 53.5188 84.4 57.4938 84.4 70.3125C84.4 81.9813 79.8813 88.1125 70.9938 88.1125H71ZM71.3875 71.0188C74.5375 71.0188 77.2188 68.9188 77.2188 64.9438C77.2188 60.9875 74.7313 58.6438 71.3438 58.6438C68.0938 58.6438 65.55 60.9875 65.55 64.8938C65.55 68.8938 68.1625 71.0188 71.3875 71.0188V71.0188Z" fill="black"/>
<path d="M28.125 15.625C28.125 14.7962 27.7958 14.0013 27.2097 13.4153C26.6237 12.8292 25.8288 12.5 25 12.5C24.1712 12.5 23.3764 12.8292 22.7903 13.4153C22.2043 14.0013 21.875 14.7962 21.875 15.625V76.8313L14.7125 69.6625C14.422 69.3719 14.0771 69.1415 13.6974 68.9842C13.3178 68.827 12.9109 68.7461 12.5 68.7461C12.0891 68.7461 11.6823 68.827 11.3026 68.9842C10.923 69.1415 10.5781 69.3719 10.2875 69.6625C9.99699 69.953 9.76651 70.298 9.60927 70.6776C9.45203 71.0572 9.37109 71.4641 9.37109 71.875C9.37109 72.2859 9.45203 72.6928 9.60927 73.0724C9.76651 73.452 9.99699 73.797 10.2875 74.0875L22.7875 86.5812L22.8313 86.625C23.418 87.1971 24.2071 87.5142 25.0265 87.5072C25.846 87.5002 26.6295 87.1696 27.2063 86.5875L39.7063 74.0875C40.2931 73.5015 40.6231 72.7065 40.6237 71.8772C40.6242 71.0479 40.2954 70.2524 39.7094 69.6656C39.1235 69.0788 38.3284 68.7488 37.4991 68.7483C36.6699 68.7477 35.8743 69.0765 35.2875 69.6625L28.125 76.8313V15.625Z" fill="black"/>
</svg>
