<svg width="100" height="100" viewBox="0 0 100 100" fill="none" xmlns="http://www.w3.org/2000/svg">
<path fill-rule="evenodd" clip-rule="evenodd" d="M71 44.3625C63.8938 44.3625 60.325 40.2563 59.9875 36.375H66.2625C66.625 37.7688 68.4063 39.1875 71.0938 39.1875C76.2438 39.1875 78.3688 34.0063 78.175 27.5875H77.8063C76.8813 30.025 74.2438 32.225 69.925 32.225C64.2375 32.225 59.175 28.3938 59.175 21.2375C59.175 14.0625 64.475 9.7625 71.5063 9.7625C78.3188 9.7625 84.4 13.7437 84.4 26.5625C84.4 38.2313 79.8813 44.3625 70.9938 44.3625H71ZM71.3875 27.2688C74.5375 27.2688 77.2188 25.1688 77.2188 21.1938C77.2188 17.2375 74.7313 14.8937 71.3438 14.8937C68.0938 14.8937 65.55 17.2375 65.55 21.1437C65.55 25.1437 68.1625 27.2688 71.3875 27.2688Z" fill="black"/>
<path d="M77.7375 54.175V87.5H71.1876V60.525H70.8688L63.3 65.8938V59.8375L71.1876 54.175H77.725H77.7375ZM28.125 15.625C28.125 14.7962 27.7958 14.0013 27.2098 13.4153C26.6237 12.8292 25.8288 12.5 25 12.5C24.1712 12.5 23.3764 12.8292 22.7903 13.4153C22.2043 14.0013 21.875 14.7962 21.875 15.625V76.8313L14.7125 69.6625C14.422 69.3719 14.0771 69.1415 13.6974 68.9842C13.3178 68.827 12.9109 68.7461 12.5 68.7461C12.0891 68.7461 11.6823 68.827 11.3026 68.9842C10.923 69.1415 10.5781 69.3719 10.2875 69.6625C9.99699 69.953 9.76651 70.298 9.60927 70.6776C9.45203 71.0572 9.37109 71.4641 9.37109 71.875C9.37109 72.2859 9.45203 72.6928 9.60927 73.0724C9.76651 73.452 9.99699 73.797 10.2875 74.0875L22.7875 86.5812L22.8313 86.625C23.418 87.1971 24.2071 87.5142 25.0265 87.5072C25.846 87.5002 26.6295 87.1696 27.2063 86.5875L39.7063 74.0875C40.2931 73.5015 40.6231 72.7065 40.6237 71.8772C40.6242 71.0479 40.2954 70.2524 39.7094 69.6656C39.1235 69.0788 38.3284 68.7488 37.4991 68.7483C36.6699 68.7477 35.8743 69.0765 35.2875 69.6625L28.125 76.8313V15.625Z" fill="black"/>
</svg>
