<svg width="144" height="144" viewBox="0 0 144 144" fill="none" xmlns="http://www.w3.org/2000/svg">
<g filter="url(#filter0_d_543_6556)">
<path d="M74.5 50.17V55.67L79.265 52.92L81.765 57.255L77 60L81.765 62.75L79.265 67.08L74.5 64.33V69.83H69.5V64.33L64.735 67.08L62.235 62.75L67 60L62.235 57.25L64.735 52.92L69.5 55.67V50.17H74.5V50.17ZM98.25 70C97.9185 70 97.6005 70.1317 97.3661 70.3662C97.1317 70.6006 97 70.9185 97 71.25V73.75C97 74.44 97.56 75 98.25 75H100.75C101.082 75 101.399 74.8683 101.634 74.6339C101.868 74.3995 102 74.0816 102 73.75V71.25C102 70.9185 101.868 70.6006 101.634 70.3662C101.399 70.1317 101.082 70 100.75 70H98.25ZM97 81.25C97 80.9185 97.1317 80.6006 97.3661 80.3662C97.6005 80.1317 97.9185 80 98.25 80H100.75C101.082 80 101.399 80.1317 101.634 80.3662C101.868 80.6006 102 80.9185 102 81.25V83.75C102 84.0816 101.868 84.3995 101.634 84.6339C101.399 84.8683 101.082 85 100.75 85H98.25C97.9185 85 97.6005 84.8683 97.3661 84.6339C97.1317 84.3995 97 84.0816 97 83.75V81.25ZM98.25 90C97.9185 90 97.6005 90.1317 97.3661 90.3662C97.1317 90.6006 97 90.9185 97 91.25V93.75C97 94.44 97.56 95 98.25 95H100.75C101.082 95 101.399 94.8683 101.634 94.6339C101.868 94.3995 102 94.0816 102 93.75V91.25C102 90.9185 101.868 90.6006 101.634 90.3662C101.399 90.1317 101.082 90 100.75 90H98.25ZM43.25 70C42.9185 70 42.6005 70.1317 42.3661 70.3662C42.1317 70.6006 42 70.9185 42 71.25V73.75C42 74.44 42.56 75 43.25 75H45.75C46.0815 75 46.3995 74.8683 46.6339 74.6339C46.8683 74.3995 47 74.0816 47 73.75V71.25C47 70.9185 46.8683 70.6006 46.6339 70.3662C46.3995 70.1317 46.0815 70 45.75 70H43.25ZM43.25 80C42.9185 80 42.6005 80.1317 42.3661 80.3662C42.1317 80.6006 42 80.9185 42 81.25V83.75C42 84.44 42.56 85 43.25 85H45.75C46.0815 85 46.3995 84.8683 46.6339 84.6339C46.8683 84.3995 47 84.0816 47 83.75V81.25C47 80.9185 46.8683 80.6006 46.6339 80.3662C46.3995 80.1317 46.0815 80 45.75 80H43.25ZM42 91.25C42 90.9185 42.1317 90.6006 42.3661 90.3662C42.6005 90.1317 42.9185 90 43.25 90H45.75C46.0815 90 46.3995 90.1317 46.6339 90.3662C46.8683 90.6006 47 90.9185 47 91.25V93.75C47 94.0816 46.8683 94.3995 46.6339 94.6339C46.3995 94.8683 46.0815 95 45.75 95H43.25C42.9185 95 42.6005 94.8683 42.3661 94.6339C42.1317 94.3995 42 94.0816 42 93.75V91.25Z" fill="#64387E"/>
<path d="M57 30C57 28.6739 57.5268 27.4021 58.4645 26.4645C59.4021 25.5268 60.6739 25 62 25H82C83.3261 25 84.5979 25.5268 85.5355 26.4645C86.4732 27.4021 87 28.6739 87 30V35C88.3261 35 89.5979 35.5268 90.5355 36.4645C91.4732 37.4021 92 38.6739 92 40V60H107C108.326 60 109.598 60.5268 110.536 61.4645C111.473 62.4021 112 63.6739 112 65V100C112 101.326 111.473 102.598 110.536 103.536C109.598 104.473 108.326 105 107 105H37C35.6739 105 34.4021 104.473 33.4645 103.536C32.5268 102.598 32 101.326 32 100V65C32 63.6739 32.5268 62.4021 33.4645 61.4645C34.4021 60.5268 35.6739 60 37 60H52V40C52 38.6739 52.5268 37.4021 53.4645 36.4645C54.4021 35.5268 55.6739 35 57 35V30ZM67 100H77V85H67V100ZM82 100H87V40H57V100H62V85C62 83.6739 62.5268 82.4021 63.4645 81.4645C64.4021 80.5268 65.6739 80 67 80H77C78.3261 80 79.5979 80.5268 80.5355 81.4645C81.4732 82.4021 82 83.6739 82 85V100ZM82 30H62V35H82V30ZM92 65V100H107V65H92ZM52 100V65H37V100H52Z" fill="#64387E"/>
<rect x="22.5" y="15.5" width="99" height="99" rx="4.5" stroke="#50266A" shape-rendering="crispEdges"/>
</g>
<defs>
<filter id="filter0_d_543_6556" x="0" y="0" width="144" height="144" filterUnits="userSpaceOnUse" color-interpolation-filters="sRGB">
<feFlood flood-opacity="0" result="BackgroundImageFix"/>
<feColorMatrix in="SourceAlpha" type="matrix" values="0 0 0 0 0 0 0 0 0 0 0 0 0 0 0 0 0 0 127 0" result="hardAlpha"/>
<feOffset dy="7"/>
<feGaussianBlur stdDeviation="11"/>
<feComposite in2="hardAlpha" operator="out"/>
<feColorMatrix type="matrix" values="0 0 0 0 0 0 0 0 0 0 0 0 0 0 0 0 0 0 0.25 0"/>
<feBlend mode="normal" in2="BackgroundImageFix" result="effect1_dropShadow_543_6556"/>
<feBlend mode="normal" in="SourceGraphic" in2="effect1_dropShadow_543_6556" result="shape"/>
</filter>
</defs>
</svg>
