<svg width="1000" height="1000" viewBox="0 0 1000 1000" fill="none" xmlns="http://www.w3.org/2000/svg">
<path d="M146.449 908.92C341.703 1030.36 658.297 1030.36 853.551 908.92C1048.81 787.48 1048.83 590.592 853.551 469.152C658.275 347.711 341.725 347.738 146.449 469.098C-48.8275 590.459 -48.8051 787.506 146.449 908.92Z" fill="#F5F5F5"/>
<path d="M797.781 708.57C830.534 708.57 857.086 693.499 857.086 674.908C857.086 656.316 830.534 641.245 797.781 641.245C765.027 641.245 738.475 656.316 738.475 674.908C738.475 693.499 765.027 708.57 797.781 708.57Z" fill="#E6E6E6"/>
<path d="M803.395 89.1183L811.896 93.0065V70.7424C811.896 53.0857 823.731 48.8512 836.504 57.6929C849.345 66.508 859.748 87.9731 859.748 105.63V108.852C861.555 108.19 863.465 108.025 865.333 108.371C867.201 108.717 868.979 109.565 870.531 110.85C875.417 114.64 879.48 119.752 882.388 125.769C885.296 131.787 886.967 138.538 887.264 145.471V146.856L899.121 155.005C902.327 157.494 904.994 160.849 906.907 164.796C908.819 168.743 909.922 173.172 910.127 177.722C910.127 186.084 905.206 189.493 899.121 185.285L803.395 119.425C800.19 116.936 797.522 113.581 795.61 109.634C793.697 105.687 792.594 101.258 792.389 96.7083C792.389 88.2661 797.311 84.9371 803.395 89.1183Z" fill="#F0F0F0"/>
<path d="M133.652 780.688L149.312 770.036C149.312 770.036 156.851 720.661 151.214 678.237C143.294 618.582 109.179 597.995 96.785 603.934C84.3915 609.873 81.5727 627.477 103.944 661.965C117.098 682.285 134.077 725.295 133.652 780.688Z" fill="#BA68C8"/>
<g opacity="0.1">
<path opacity="0.1" d="M133.652 780.688L149.312 770.036C149.312 770.036 156.851 720.661 151.214 678.237C143.294 618.582 109.179 597.995 96.785 603.934C84.3915 609.873 81.5727 627.477 103.944 661.965C117.098 682.285 134.077 725.295 133.652 780.688Z" fill="black"/>
</g>
<path d="M140.767 762.206C140.355 762.172 139.971 761.946 139.699 761.577C139.427 761.208 139.288 760.726 139.312 760.235C142.936 685.933 131.013 641.938 99.4473 613.176C99.2726 613.031 99.1253 612.845 99.0147 612.629C98.9042 612.413 98.8329 612.172 98.8055 611.921C98.7781 611.67 98.7952 611.415 98.8557 611.172C98.9161 610.93 99.0186 610.705 99.1565 610.512C99.278 610.306 99.434 610.131 99.6147 609.999C99.7954 609.868 99.997 609.782 100.207 609.747C100.417 609.712 100.63 609.728 100.835 609.796C101.039 609.864 101.229 609.981 101.394 610.14C133.899 639.754 146.136 684.708 142.489 760.395C142.487 760.653 142.44 760.908 142.35 761.143C142.26 761.378 142.13 761.588 141.967 761.758C141.805 761.929 141.614 762.057 141.407 762.135C141.2 762.212 140.982 762.236 140.767 762.206Z" fill="white"/>
<path d="M90.1185 810.596C87.6353 812.274 82.5347 808.572 80.5884 807.027C77.2412 804.337 74.5298 800.669 72.7138 796.375C70.6609 791.428 69.972 785.836 70.7452 780.396C71.1374 777.538 71.698 774.717 72.423 771.953C73.0941 769.29 73.7429 766.494 74.3917 763.777C75.2014 761.137 75.5441 758.327 75.3984 755.522C74.8167 749.929 70.6333 746.014 66.8303 742.632C62.6469 738.903 58.2845 733.95 58.3069 727.212C58.6153 721.989 60.3698 717.034 63.2956 713.124C66.0025 709.049 69.2016 705.427 71.64 701.14C73.5736 698.134 74.5842 694.431 74.5035 690.647C74.2386 688.34 73.5841 686.12 72.5796 684.122C70.2876 679.94 68.2755 675.55 66.5618 670.993C65.1972 666.306 65.3985 660.34 68.4857 657.064C69.8628 655.832 71.434 654.943 73.1058 654.449C74.7777 653.955 76.5159 653.866 78.2171 654.188C81.394 654.666 84.4465 655.956 87.1655 657.97C96.1139 663.909 101.259 676.612 110.812 681.166C114.59 682.569 118.437 683.69 122.333 684.522C124.287 684.952 126.144 685.864 127.785 687.199C129.426 688.533 130.815 690.261 131.863 692.271C135.353 700.607 128.865 710.914 131.326 719.675C133.563 727.505 139.872 730.488 143.451 737.519C144.92 740.633 145.508 744.228 145.129 747.772C144.823 753.749 143.595 759.609 141.505 765.056C139.22 770.494 136.595 775.719 133.652 780.688C133.496 780.822 90.5211 810.33 90.1185 810.596Z" fill="#BA68C8"/>
<path d="M115.8 794.777H115.599C115.191 794.71 114.821 794.455 114.569 794.066C114.318 793.677 114.206 793.186 114.257 792.699C118.731 749.876 101.639 692.165 76.0247 664.015C75.8047 663.663 75.6963 663.229 75.7186 662.791C75.7409 662.353 75.8924 661.938 76.1464 661.62C76.4004 661.301 76.7407 661.1 77.1072 661.051C77.4737 661.002 77.843 661.109 78.1499 661.352C104.861 690.647 122.087 748.624 117.344 793.232C117.285 793.667 117.097 794.062 116.813 794.346C116.53 794.629 116.17 794.782 115.8 794.777Z" fill="white"/>
<path d="M111.326 738.93C110.995 738.924 110.674 738.794 110.409 738.557C96.7403 726.36 74.8614 728.57 74.8614 728.597C74.6563 728.627 74.4482 728.606 74.25 728.536C74.0517 728.467 73.8674 728.35 73.7083 728.193C73.5492 728.036 73.4186 727.842 73.3246 727.623C73.2305 727.404 73.175 727.165 73.1613 726.919C73.1239 726.429 73.2511 725.94 73.5152 725.561C73.7793 725.182 74.1587 724.942 74.5706 724.895C75.5102 724.895 97.7693 722.525 112.378 735.548C112.549 735.695 112.693 735.882 112.802 736.097C112.91 736.312 112.982 736.551 113.011 736.8C113.04 737.049 113.027 737.302 112.972 737.544C112.917 737.787 112.821 738.014 112.691 738.211C112.529 738.453 112.32 738.645 112.083 738.77C111.845 738.895 111.585 738.95 111.326 738.93Z" fill="white"/>
<path d="M109.156 728.224C108.951 728.217 108.75 728.162 108.563 728.062C108.377 727.961 108.209 727.818 108.069 727.639C107.93 727.461 107.822 727.251 107.751 727.022C107.68 726.793 107.648 726.55 107.657 726.307C107.986 719.698 109.436 713.238 111.919 707.315C114.403 701.392 117.868 696.13 122.107 691.845C122.267 691.673 122.454 691.542 122.658 691.46C122.862 691.378 123.078 691.347 123.293 691.369C123.507 691.391 123.715 691.465 123.905 691.587C124.094 691.709 124.26 691.876 124.393 692.078C124.525 692.28 124.621 692.512 124.675 692.761C124.729 693.009 124.739 693.267 124.705 693.52C124.671 693.773 124.594 694.015 124.478 694.231C124.362 694.447 124.21 694.632 124.031 694.775C120.151 698.735 116.971 703.574 114.675 709.01C112.378 714.445 111.012 720.37 110.655 726.44C110.633 726.905 110.468 727.344 110.192 727.673C109.915 728.002 109.546 728.199 109.156 728.224Z" fill="white"/>
<path d="M832.276 634.214C832.925 624.867 838.987 608.941 847.936 597.596C856.884 586.251 871.224 580.791 880.061 585.372C888.293 589.633 886.481 602.762 875.586 610.539C864.692 618.315 848.54 627.823 842.992 642.497L832.254 660.154L832.276 634.214Z" fill="#BA68C8"/>
<path opacity="0.1" d="M832.276 634.214C832.925 624.867 838.987 608.941 847.936 597.596C856.884 586.251 871.224 580.791 880.061 585.372C888.293 589.633 886.481 602.762 875.586 610.539C864.692 618.315 848.54 627.823 842.992 642.497L832.254 660.154L832.276 634.214Z" fill="black"/>
<path d="M832.276 651.179H832.142C831.86 651.132 831.605 650.955 831.433 650.686C831.261 650.416 831.186 650.076 831.224 649.741C835.139 615.119 864.647 591.151 876.369 588.488C876.512 588.441 876.661 588.43 876.808 588.456C876.954 588.481 877.095 588.543 877.221 588.636C877.346 588.729 877.454 588.852 877.538 588.998C877.622 589.143 877.679 589.307 877.707 589.48C877.735 589.654 877.733 589.832 877.7 590.004C877.667 590.175 877.605 590.337 877.517 590.479C877.429 590.621 877.318 590.74 877.189 590.828C877.061 590.916 876.919 590.972 876.772 590.991C865.832 593.468 837.063 617.25 833.35 650.087C833.312 650.393 833.182 650.672 832.985 650.873C832.787 651.073 832.536 651.182 832.276 651.179Z" fill="white"/>
<path d="M833.462 672.697C835.073 667.557 841.046 659.381 850.24 653.096C860.397 646.119 872.835 643.642 876.056 637.757C879.949 630.673 875.184 623.189 865.184 623.695C855.184 624.201 836.706 638.609 832.276 662.551L833.462 672.697Z" fill="#BA68C8"/>
<path d="M832.746 667.744H832.545C832.264 667.673 832.019 667.475 831.86 667.191C831.701 666.907 831.642 666.561 831.695 666.226C834.647 648.516 856.303 630.166 870.173 629.394C870.455 629.386 870.729 629.505 870.941 629.727C871.152 629.949 871.285 630.258 871.314 630.593C871.323 630.763 871.303 630.933 871.256 631.094C871.209 631.255 871.135 631.403 871.039 631.53C870.943 631.656 870.827 631.759 870.698 631.831C870.568 631.903 870.428 631.944 870.284 631.951C857.332 632.67 836.549 650.327 833.797 666.732C833.75 667.021 833.619 667.28 833.426 667.466C833.234 667.651 832.993 667.749 832.746 667.744Z" fill="white"/>
<path d="M452.103 780.396V781.488C452.146 782.414 452.371 783.316 452.759 784.121C453.148 784.926 453.689 785.611 454.341 786.121L587.314 877.495C588.004 877.924 588.772 878.148 589.551 878.148C590.33 878.148 591.097 877.924 591.788 877.495L788.183 742.526C788.837 742.012 789.38 741.323 789.769 740.513C790.158 739.704 790.381 738.796 790.42 737.865V736.8C790.377 735.869 790.153 734.964 789.764 734.155C789.376 733.345 788.834 732.655 788.183 732.139L655.232 640.766C654.538 640.349 653.772 640.132 652.995 640.132C652.218 640.132 651.452 640.349 650.758 640.766L454.341 775.762C453.689 776.272 453.148 776.957 452.759 777.762C452.371 778.567 452.146 779.469 452.103 780.396Z" fill="#E0E0E0"/>
<path d="M452.104 780.396V781.487C452.146 782.414 452.371 783.316 452.759 784.121C453.148 784.926 453.69 785.611 454.341 786.121L587.314 877.495C588 877.936 588.771 878.156 589.551 878.134V857.255L462.663 770.036L454.341 775.762C453.69 776.272 453.148 776.957 452.759 777.762C452.371 778.567 452.146 779.469 452.104 780.396Z" fill="#E6E6E6"/>
<path d="M454.341 778.851L587.314 870.224C588.005 870.654 588.772 870.878 589.551 870.878C590.33 870.878 591.098 870.654 591.788 870.224L788.183 735.255C789.436 734.403 789.436 733.018 788.183 732.139L655.232 640.766C654.539 640.349 653.772 640.132 652.995 640.132C652.218 640.132 651.452 640.349 650.758 640.766L454.341 775.762C454.067 775.868 453.828 776.075 453.659 776.352C453.49 776.629 453.399 776.964 453.399 777.306C453.399 777.649 453.49 777.983 453.659 778.261C453.828 778.538 454.067 778.745 454.341 778.851Z" fill="white"/>
<path d="M623.756 815.31L534.272 753.764C532.706 752.699 532.639 751.101 534.093 750.009C534.949 749.526 535.888 749.286 536.836 749.309C537.783 749.332 538.713 749.617 539.552 750.142L629.036 811.661C630.602 812.753 630.669 814.324 629.215 815.416C628.362 815.912 627.423 816.161 626.475 816.142C625.526 816.124 624.595 815.838 623.756 815.31Z" fill="#EBEBEB"/>
<path d="M560.312 822.5L516.152 792.167C514.586 791.101 514.519 789.504 515.973 788.412C516.819 787.9 517.754 787.633 518.702 787.633C519.651 787.633 520.586 787.9 521.432 788.412L565.592 818.772C567.158 819.837 567.225 821.435 565.771 822.527C564.925 823.041 563.989 823.307 563.039 823.303C562.089 823.298 561.155 823.023 560.312 822.5Z" fill="#E0E0E0"/>
<path d="M572.862 814.431L541.812 793.126C540.715 792.353 540.671 791.181 541.677 790.462C542.272 790.096 542.932 789.904 543.601 789.904C544.271 789.904 544.931 790.096 545.525 790.462L576.598 811.768C577.695 812.54 577.739 813.712 576.71 814.431C576.114 814.791 575.455 814.979 574.786 814.979C574.118 814.979 573.459 814.791 572.862 814.431Z" fill="#EBEBEB"/>
<path d="M639.64 804.311L550.156 742.792C548.59 741.7 548.523 740.129 549.977 739.037C550.822 738.524 551.758 738.258 552.706 738.258C553.655 738.258 554.59 738.524 555.436 739.037L644.92 800.582C646.485 801.648 646.553 803.246 645.098 804.337C644.249 804.837 643.314 805.095 642.367 805.091C641.419 805.086 640.486 804.819 639.64 804.311Z" fill="#EBEBEB"/>
<path d="M655.523 793.445L566.039 731.899C564.473 730.834 564.406 729.236 565.86 728.144C566.706 727.632 567.641 727.365 568.589 727.365C569.538 727.365 570.473 727.632 571.319 728.144L660.803 789.69C662.346 790.755 662.436 792.353 660.959 793.445C660.117 793.953 659.186 794.218 658.241 794.218C657.297 794.218 656.366 793.953 655.523 793.445Z" fill="#EBEBEB"/>
<path d="M671.407 782.553L624.137 749.956C622.571 748.89 622.504 747.292 623.958 746.201C624.814 745.717 625.753 745.478 626.7 745.501C627.648 745.524 628.578 745.809 629.417 746.334L676.642 778.904C678.185 779.996 678.275 781.567 676.821 782.659C675.973 783.142 675.043 783.384 674.103 783.365C673.164 783.347 672.241 783.069 671.407 782.553Z" fill="#EBEBEB"/>
<path d="M716.26 751.607L626.777 690.088C625.233 689.023 625.143 687.425 626.598 686.333C627.447 685.82 628.386 685.553 629.338 685.553C630.29 685.553 631.229 685.82 632.078 686.333L721.562 747.878C723.106 748.944 723.195 750.542 721.719 751.634C720.873 752.148 719.937 752.414 718.987 752.409C718.037 752.405 717.103 752.129 716.26 751.607Z" fill="#EBEBEB"/>
<path d="M732.166 740.741L642.682 679.195C641.139 678.13 641.049 676.532 642.526 675.44C643.37 674.922 644.306 674.651 645.255 674.651C646.205 674.651 647.141 674.922 647.984 675.44L737.468 736.959C739.012 738.025 739.101 739.623 737.647 740.714C736.801 741.235 735.862 741.509 734.91 741.514C733.957 741.518 733.017 741.254 732.166 740.741Z" fill="#EBEBEB"/>
<path d="M700.377 762.499L610.893 700.953C609.327 699.888 609.26 698.29 610.714 697.198C611.57 696.715 612.509 696.475 613.456 696.498C614.404 696.522 615.334 696.807 616.173 697.332L705.657 758.877C707.223 759.942 707.312 761.54 705.835 762.606C704.983 763.101 704.044 763.35 703.095 763.332C702.147 763.313 701.215 763.028 700.377 762.499Z" fill="#EBEBEB"/>
<path d="M748.05 729.849L658.566 668.303C657 667.238 656.933 665.64 658.387 664.575C659.232 664.062 660.167 663.795 661.116 663.795C662.065 663.795 663 664.062 663.845 664.575L753.329 726.12C754.895 727.186 754.962 728.783 753.508 729.875C752.659 730.375 751.724 730.633 750.776 730.628C749.829 730.624 748.896 730.357 748.05 729.849Z" fill="#EBEBEB"/>
<path d="M594.898 824.444C591.616 822.475 587.992 821.45 584.317 821.45C580.641 821.45 577.017 822.475 573.735 824.444C567.896 828.466 567.896 835.097 573.735 838.985C577.013 840.969 580.639 842.002 584.317 842.002C587.994 842.002 591.62 840.969 594.898 838.985C600.737 834.99 600.737 828.466 594.898 824.444Z" fill="#E0E0E0"/>
<path d="M454.408 483.16L370.517 540.817C367.122 543.484 364.719 547.604 363.805 552.322L342.956 695.627C342.715 697.852 343.008 700.112 343.799 702.148C344.591 704.183 345.849 705.911 347.43 707.132L401.523 744.416C403.259 745.45 405.174 745.988 407.116 745.988C409.057 745.988 410.972 745.45 412.708 744.416L528.322 664.947C530.02 663.872 531.441 662.267 532.432 660.303C533.423 658.34 533.947 656.093 533.947 653.802C533.947 651.512 533.423 649.264 532.432 647.301C531.441 645.338 530.02 643.732 528.322 642.657L486.712 614.081C485.043 612.779 483.621 611.076 482.539 609.081C481.456 607.085 480.736 604.843 480.425 602.496L471.164 494.345C470.894 492.067 470.225 489.883 469.2 487.933C468.174 485.983 466.816 484.311 465.213 483.027C463.529 482.041 461.674 481.539 459.797 481.562C457.921 481.585 456.075 482.133 454.408 483.16Z" fill="#263238"/>
<path d="M407.183 719.116V745.908C409.145 745.951 411.085 745.401 412.82 744.31L528.434 664.841C530.04 663.641 531.388 662.008 532.367 660.075C533.346 658.141 533.93 655.96 534.071 653.709C533.947 651.075 533.168 648.545 531.834 646.438H512.886L407.183 719.116Z" fill="#37474F"/>
<path d="M464.99 490.404L381.076 548.088C377.668 550.738 375.261 554.865 374.365 559.593L355.439 689.661C355.194 691.89 355.484 694.156 356.276 696.197C357.068 698.238 358.329 699.97 359.913 701.193L401.478 729.769C403.215 730.802 405.13 731.34 407.071 731.34C409.013 731.34 410.927 730.802 412.664 729.769L528.434 650.193C531.543 648.063 531.543 644.601 528.434 642.444L486.824 613.868C485.155 612.566 483.733 610.863 482.651 608.868C481.568 606.872 480.848 604.629 480.537 602.283L471.276 494.132C471.288 493.258 471.091 492.397 470.71 491.65C470.328 490.903 469.777 490.3 469.12 489.91C468.462 489.52 467.726 489.359 466.995 489.447C466.264 489.534 465.569 489.866 464.99 490.404Z" fill="#263238"/>
<path d="M528.434 642.55L486.824 613.975C485.155 612.726 483.747 611.041 482.707 609.048L356.199 696C356.974 698.142 358.277 699.953 359.935 701.193L401.478 729.769C403.215 730.803 405.13 731.341 407.071 731.341C409.013 731.341 410.927 730.803 412.664 729.769L528.434 650.194C531.543 648.17 531.543 644.707 528.434 642.55Z" fill="#455A64"/>
<path d="M187.813 768.172L182.422 764.47C180.128 762.684 178.22 760.281 176.852 757.454C175.484 754.627 174.694 751.456 174.547 748.198V319.429C174.695 316.171 175.487 313.002 176.859 310.179C178.232 307.355 180.145 304.958 182.444 303.183L622.593 2.24578C625.041 0.769363 627.746 0 630.49 0C633.234 0 635.94 0.769363 638.387 2.24578L642.481 4.90895C644.779 6.69153 646.692 9.09386 648.064 11.921C649.436 14.7482 650.229 17.9206 650.378 21.1809V450.216C650.231 453.477 649.438 456.65 648.066 459.478C646.694 462.305 644.78 464.707 642.481 466.488L203.585 768.172C201.139 769.641 198.438 770.407 195.699 770.407C192.96 770.407 190.258 769.641 187.813 768.172Z" fill="#455A64"/>
<path d="M206.269 330.241L176.851 310.028C175.455 312.84 174.684 316.03 174.614 319.295V748.198C174.761 751.456 175.551 754.627 176.919 757.454C178.287 760.281 180.195 762.684 182.489 764.47L187.88 768.172C190.325 769.642 193.027 770.407 195.766 770.407C198.505 770.407 201.206 769.642 203.652 768.172L206.336 766.307L206.269 330.241Z" fill="#263238"/>
<path d="M195.665 762.739V333.97C195.813 330.709 196.605 327.536 197.977 324.708C199.349 321.881 201.263 319.479 203.562 317.698L642.481 15.8813C646.843 12.8985 650.378 15.322 650.378 21.2076V450.217C650.23 453.477 649.438 456.651 648.066 459.478C646.694 462.306 644.78 464.708 642.481 466.489L203.584 768.172C199.222 771.154 195.665 768.731 195.665 762.739Z" fill="#37474F"/>
<path d="M401.792 602.869L443.379 574.267C446.511 572.136 449.017 573.654 449.017 577.676C448.884 579.93 448.304 582.114 447.324 584.05C446.344 585.985 444.992 587.616 443.379 588.808L401.792 617.41C398.682 619.54 396.154 618.022 396.154 614.001C396.295 611.749 396.879 609.569 397.858 607.635C398.838 605.702 400.185 604.069 401.792 602.869Z" fill="#263238"/>
<path d="M215.911 330.614L629.26 45.6554C631.765 43.951 633.734 45.3359 633.734 48.7447V422.68C633.655 424.539 633.209 426.349 632.432 427.964C631.654 429.58 630.568 430.953 629.26 431.974L215.911 716.08C213.428 717.785 211.437 716.4 211.437 712.964V340.121C211.495 338.228 211.931 336.377 212.709 334.724C213.487 333.071 214.585 331.662 215.911 330.614Z" fill="white"/>
<path d="M242.935 442.653L238.707 439.803C237.066 438.533 235.7 436.819 234.721 434.801C233.741 432.783 233.175 430.519 233.069 428.192V356.42C233.175 354.093 233.741 351.828 234.721 349.811C235.7 347.793 237.066 346.079 238.707 344.808L396.624 236.258C398.36 235.224 400.275 234.686 402.216 234.686C404.158 234.686 406.073 235.224 407.809 236.258L412.015 239.161C413.655 240.433 415.019 242.147 415.999 244.165C416.978 246.182 417.545 248.446 417.652 250.772V322.624C417.545 324.954 416.978 327.222 415.999 329.243C415.02 331.265 413.655 332.984 412.015 334.262L254.098 442.786C252.36 443.811 250.443 444.333 248.503 444.31C246.563 444.287 244.656 443.719 242.935 442.653Z" fill="#BA68C8"/>
<path opacity="0.4" d="M242.935 442.653L238.707 439.803C237.066 438.533 235.7 436.819 234.721 434.801C233.741 432.783 233.175 430.519 233.069 428.192V356.42C233.175 354.093 233.741 351.828 234.721 349.811C235.7 347.793 237.066 346.079 238.707 344.808L396.624 236.258C398.36 235.224 400.275 234.686 402.216 234.686C404.158 234.686 406.073 235.224 407.809 236.258L412.015 239.161C413.655 240.433 415.019 242.147 415.999 244.165C416.978 246.182 417.545 248.446 417.652 250.772V322.624C417.545 324.954 416.978 327.222 415.999 329.243C415.02 331.265 413.655 332.984 412.015 334.262L254.098 442.786C252.36 443.811 250.443 444.333 248.503 444.31C246.563 444.287 244.656 443.719 242.935 442.653Z" fill="#BA68C8"/>
<path opacity="0.3" d="M242.935 442.653L238.707 439.803C237.066 438.533 235.7 436.819 234.721 434.801C233.741 432.783 233.175 430.519 233.069 428.192V356.42C233.175 354.093 233.741 351.828 234.721 349.811C235.7 347.793 237.066 346.079 238.707 344.808L396.624 236.258C398.36 235.224 400.275 234.686 402.216 234.686C404.158 234.686 406.073 235.224 407.809 236.258L412.015 239.161C413.655 240.433 415.019 242.147 415.999 244.165C416.978 246.182 417.545 248.446 417.652 250.772V322.624C417.545 324.954 416.978 327.222 415.999 329.243C415.02 331.265 413.655 332.984 412.015 334.262L254.098 442.786C252.36 443.811 250.443 444.333 248.503 444.31C246.563 444.287 244.656 443.719 242.935 442.653Z" fill="white"/>
<path d="M259.132 366.593L234.725 349.815C233.716 351.816 233.147 354.088 233.069 356.42V428.139C233.175 430.466 233.741 432.73 234.721 434.748C235.7 436.766 237.066 438.479 238.707 439.75L242.935 442.653C244.667 443.703 246.584 444.25 248.528 444.25C250.472 444.25 252.388 443.703 254.12 442.653L259.064 439.271L259.132 366.593Z" fill="#BA68C8"/>
<path opacity="0.2" d="M259.132 366.593L234.725 349.815C233.716 351.816 233.147 354.088 233.069 356.42V428.139C233.175 430.466 233.741 432.73 234.721 434.748C235.7 436.766 237.066 438.479 238.707 439.75L242.935 442.653C244.667 443.703 246.584 444.25 248.528 444.25C250.472 444.25 252.388 443.703 254.12 442.653L259.064 439.271L259.132 366.593Z" fill="black"/>
<path d="M248.55 367.073V438.792C248.55 443.053 251.078 444.81 254.187 442.653L412.104 334.129C413.744 332.851 415.109 331.132 416.089 329.11C417.068 327.089 417.634 324.821 417.742 322.491V250.719C417.742 246.458 415.214 244.727 412.104 246.857L254.187 355.381C252.541 356.665 251.173 358.392 250.193 360.424C249.214 362.455 248.651 364.733 248.55 367.073Z" fill="#BA68C8"/>
<path d="M316.021 327.498L370.629 289.947C372.866 288.429 374.633 289.122 374.633 291.492C374.471 292.957 374.024 294.358 373.329 295.582C372.634 296.807 371.71 297.823 370.629 298.549L316.021 336.1C313.784 337.618 311.994 336.925 311.994 334.555C312.159 333.087 312.608 331.685 313.307 330.46C314.006 329.235 314.935 328.221 316.021 327.498Z" fill="white"/>
<path d="M315.395 349.735L403.715 288.962C405.595 287.684 407.116 288.27 407.116 290.267C406.981 291.509 406.604 292.696 406.013 293.732C405.422 294.768 404.635 295.625 403.715 296.232L315.328 357.006C313.449 358.284 311.927 357.698 311.927 355.701C312.069 354.451 312.457 353.259 313.06 352.223C313.662 351.186 314.462 350.333 315.395 349.735Z" fill="white"/>
<path d="M315.395 364.276L403.715 303.503C405.595 302.225 407.116 302.81 407.116 304.808C406.981 306.05 406.604 307.237 406.013 308.273C405.422 309.309 404.635 310.166 403.715 310.773L315.328 371.52C313.449 372.825 311.927 372.239 311.927 370.215C312.072 368.97 312.462 367.784 313.064 366.752C313.667 365.72 314.465 364.872 315.395 364.276Z" fill="white"/>
<path d="M315.395 378.79L403.715 318.044C405.595 316.765 407.116 317.351 407.116 319.349C406.978 320.586 406.599 321.768 406.008 322.799C405.418 323.83 404.633 324.683 403.715 325.287L315.328 386.034C313.449 387.313 311.927 386.727 311.927 384.729C312.072 383.485 312.462 382.298 313.064 381.266C313.667 380.234 314.465 379.386 315.395 378.79Z" fill="white"/>
<path d="M263.651 363.477L296.916 340.627C299.422 338.896 301.39 340.281 301.39 343.717V389.47C301.312 391.329 300.866 393.14 300.088 394.755C299.311 396.37 298.224 397.743 296.916 398.764L263.651 421.641C261.145 423.345 259.176 421.96 259.176 418.525V372.798C259.255 370.936 259.701 369.121 260.478 367.502C261.256 365.882 262.343 364.504 263.651 363.477Z" fill="#BA68C8"/>
<path opacity="0.3" d="M263.651 363.477L296.916 340.627C299.422 338.896 301.39 340.281 301.39 343.717V389.47C301.312 391.329 300.866 393.14 300.088 394.755C299.311 396.37 298.224 397.743 296.916 398.764L263.651 421.641C261.145 423.345 259.176 421.96 259.176 418.525V372.798C259.255 370.936 259.701 369.121 260.478 367.502C261.256 365.882 262.343 364.504 263.651 363.477Z" fill="white"/>
<path d="M266.491 383.531C265.787 383.534 265.094 383.323 264.478 382.918C263.741 382.347 263.145 381.553 262.752 380.617C262.359 379.681 262.182 378.636 262.241 377.592C262.339 375.133 262.931 372.737 263.966 370.606C265.001 368.475 266.45 366.67 268.191 365.341C268.895 364.666 269.754 364.261 270.655 364.179C271.556 364.096 272.457 364.341 273.239 364.88C274.021 365.419 274.648 366.227 275.036 367.199C275.425 368.17 275.557 369.259 275.416 370.322C275.322 372.779 274.735 375.174 273.704 377.305C272.672 379.436 271.227 381.243 269.489 382.572C268.577 383.199 267.544 383.53 266.491 383.531ZM269.489 367.898C268.152 368.961 267.039 370.377 266.236 372.035C265.433 373.693 264.962 375.549 264.858 377.459C264.721 377.969 264.734 378.52 264.896 379.019C265.058 379.519 265.359 379.938 265.748 380.205C266.138 380.473 266.593 380.574 267.037 380.491C267.482 380.408 267.889 380.146 268.191 379.749C269.53 378.689 270.645 377.274 271.448 375.615C272.251 373.957 272.721 372.099 272.821 370.188C272.959 369.678 272.946 369.128 272.784 368.628C272.622 368.128 272.321 367.709 271.931 367.442C271.542 367.174 271.087 367.073 270.642 367.156C270.198 367.239 269.791 367.501 269.489 367.898Z" fill="white"/>
<path d="M301.435 373.224L295.082 365.235C294.769 364.859 294.384 364.578 293.96 364.416C293.536 364.254 293.086 364.216 292.647 364.305C292.209 364.393 291.794 364.606 291.439 364.926C291.084 365.245 290.799 365.662 290.608 366.14L281.481 390.109L277.006 385.315C276.704 384.996 276.348 384.757 275.963 384.615C275.577 384.473 275.17 384.43 274.769 384.489C274.37 384.555 273.988 384.722 273.648 384.979C273.308 385.236 273.019 385.578 272.801 385.981L259.132 411.254V417.007L275.239 387.712L289.937 403.558L292.286 401.933L283.449 392.399L292.912 367.499H293.203L301.435 377.911V373.224Z" fill="white"/>
<path d="M242.935 562.495L238.707 559.646C237.066 558.375 235.7 556.661 234.721 554.644C233.741 552.626 233.175 550.361 233.069 548.034V476.262C233.175 473.935 233.741 471.671 234.721 469.653C235.7 467.635 237.066 465.922 238.707 464.651L396.624 356.1C398.36 355.067 400.275 354.528 402.216 354.528C404.158 354.528 406.073 355.067 407.809 356.1L412.015 359.003C413.655 360.275 415.019 361.99 415.999 364.007C416.978 366.024 417.545 368.288 417.652 370.614V442.467C417.545 444.797 416.978 447.064 415.999 449.086C415.02 451.107 413.655 452.827 412.015 454.105L254.098 562.629C252.36 563.654 250.443 564.176 248.503 564.153C246.563 564.13 244.656 563.562 242.935 562.495Z" fill="#BA68C8"/>
<path opacity="0.4" d="M242.935 562.495L238.707 559.646C237.066 558.375 235.7 556.661 234.721 554.644C233.741 552.626 233.175 550.361 233.069 548.034V476.262C233.175 473.935 233.741 471.671 234.721 469.653C235.7 467.635 237.066 465.922 238.707 464.651L396.624 356.1C398.36 355.067 400.275 354.528 402.216 354.528C404.158 354.528 406.073 355.067 407.809 356.1L412.015 359.003C413.655 360.275 415.019 361.99 415.999 364.007C416.978 366.024 417.545 368.288 417.652 370.614V442.467C417.545 444.797 416.978 447.064 415.999 449.086C415.02 451.107 413.655 452.827 412.015 454.105L254.098 562.629C252.36 563.654 250.443 564.176 248.503 564.153C246.563 564.13 244.656 563.562 242.935 562.495Z" fill="#BA68C8"/>
<path opacity="0.3" d="M242.935 562.495L238.707 559.646C237.066 558.375 235.7 556.661 234.721 554.644C233.741 552.626 233.175 550.361 233.069 548.034V476.262C233.175 473.935 233.741 471.671 234.721 469.653C235.7 467.635 237.066 465.922 238.707 464.651L396.624 356.1C398.36 355.067 400.275 354.528 402.216 354.528C404.158 354.528 406.073 355.067 407.809 356.1L412.015 359.003C413.655 360.275 415.019 361.99 415.999 364.007C416.978 366.024 417.545 368.288 417.652 370.614V442.467C417.545 444.797 416.978 447.064 415.999 449.086C415.02 451.107 413.655 452.827 412.015 454.105L254.098 562.629C252.36 563.654 250.443 564.176 248.503 564.153C246.563 564.13 244.656 563.562 242.935 562.495Z" fill="white"/>
<path d="M259.132 486.435L234.725 469.658C233.716 471.659 233.147 473.93 233.069 476.262V547.981C233.175 550.308 233.741 552.573 234.721 554.59C235.7 556.608 237.066 558.322 238.707 559.593L242.935 562.495C244.667 563.545 246.584 564.093 248.528 564.093C250.472 564.093 252.388 563.545 254.12 562.495L259.064 559.113L259.132 486.435Z" fill="#BA68C8"/>
<path opacity="0.2" d="M259.132 486.435L234.725 469.658C233.716 471.659 233.147 473.93 233.069 476.262V547.981C233.175 550.308 233.741 552.573 234.721 554.59C235.7 556.608 237.066 558.322 238.707 559.593L242.935 562.495C244.667 563.545 246.584 564.093 248.528 564.093C250.472 564.093 252.388 563.545 254.12 562.495L259.064 559.113L259.132 486.435Z" fill="black"/>
<path d="M248.55 486.915V558.634C248.55 562.895 251.078 564.653 254.187 562.495L412.104 453.972C413.744 452.693 415.109 450.974 416.089 448.953C417.068 446.931 417.634 444.664 417.742 442.333V370.561C417.742 366.3 415.214 364.569 412.104 366.7L254.187 475.224C252.541 476.507 251.173 478.235 250.193 480.266C249.214 482.298 248.651 484.576 248.55 486.915Z" fill="#BA68C8"/>
<path d="M316.021 447.34L370.629 409.79C372.866 408.272 374.633 408.964 374.633 411.334C374.471 412.8 374.024 414.2 373.329 415.425C372.634 416.65 371.71 417.665 370.629 418.392L316.021 455.942C313.784 457.46 311.994 456.768 311.994 454.398C312.159 452.93 312.608 451.528 313.307 450.303C314.006 449.078 314.935 448.063 316.021 447.34Z" fill="white"/>
<path d="M315.395 469.578L403.715 408.804C405.595 407.526 407.116 408.112 407.116 410.109C406.981 411.351 406.604 412.538 406.013 413.574C405.422 414.611 404.635 415.467 403.715 416.075L315.328 476.848C313.449 478.126 311.927 477.54 311.927 475.543C312.069 474.294 312.457 473.102 313.06 472.065C313.662 471.028 314.462 470.176 315.395 469.578Z" fill="white"/>
<path d="M315.395 484.118L403.715 423.345C405.595 422.067 407.116 422.653 407.116 424.65C406.981 425.892 406.604 427.079 406.013 428.115C405.422 429.151 404.635 430.008 403.715 430.615L315.328 491.362C313.449 492.667 311.927 492.081 311.927 490.057C312.072 488.812 312.462 487.626 313.064 486.594C313.667 485.562 314.465 484.714 315.395 484.118Z" fill="white"/>
<path d="M315.395 498.633L403.715 437.886C405.595 436.608 407.116 437.194 407.116 439.191C406.978 440.428 406.599 441.61 406.008 442.641C405.418 443.673 404.633 444.525 403.715 445.13L315.328 505.877C313.449 507.155 311.927 506.569 311.927 504.572C312.072 503.327 312.462 502.14 313.064 501.108C313.667 500.076 314.465 499.228 315.395 498.633Z" fill="white"/>
<path d="M263.651 483.32L296.916 460.47C299.422 458.739 301.39 460.123 301.39 463.559V509.312C301.312 511.171 300.866 512.982 300.088 514.597C299.311 516.212 298.224 517.586 296.916 518.606L263.651 541.483C261.145 543.187 259.176 541.803 259.176 538.367V492.641C259.255 490.778 259.701 488.963 260.478 487.344C261.256 485.725 262.343 484.346 263.651 483.32Z" fill="#BA68C8"/>
<path opacity="0.3" d="M263.651 483.32L296.916 460.47C299.422 458.739 301.39 460.123 301.39 463.559V509.312C301.312 511.171 300.866 512.982 300.088 514.597C299.311 516.212 298.224 517.586 296.916 518.606L263.651 541.483C261.145 543.187 259.176 541.803 259.176 538.367V492.641C259.255 490.778 259.701 488.963 260.478 487.344C261.256 485.725 262.343 484.346 263.651 483.32Z" fill="white"/>
<path d="M266.491 503.373C265.787 503.376 265.094 503.165 264.478 502.761C263.741 502.19 263.145 501.395 262.752 500.459C262.359 499.523 262.182 498.479 262.241 497.434C262.339 494.975 262.931 492.58 263.966 490.448C265.001 488.317 266.45 486.512 268.191 485.184C268.895 484.509 269.754 484.104 270.655 484.021C271.556 483.939 272.457 484.183 273.239 484.722C274.021 485.261 274.648 486.07 275.036 487.041C275.425 488.012 275.557 489.101 275.416 490.164C275.322 492.621 274.735 495.016 273.704 497.147C272.672 499.279 271.227 501.085 269.489 502.414C268.577 503.042 267.544 503.372 266.491 503.373ZM269.489 487.74C268.152 488.804 267.039 490.219 266.236 491.877C265.433 493.535 264.962 495.391 264.858 497.301C264.721 497.811 264.734 498.362 264.896 498.862C265.058 499.361 265.359 499.78 265.748 500.048C266.138 500.316 266.593 500.416 267.037 500.333C267.482 500.25 267.889 499.989 268.191 499.592C269.53 498.531 270.645 497.116 271.448 495.458C272.251 493.799 272.721 491.942 272.821 490.031C272.959 489.521 272.946 488.97 272.784 488.47C272.622 487.97 272.321 487.552 271.931 487.284C271.542 487.016 271.087 486.916 270.642 486.999C270.198 487.082 269.791 487.343 269.489 487.74Z" fill="white"/>
<path d="M301.435 493.067L295.082 485.077C294.769 484.701 294.384 484.42 293.96 484.258C293.536 484.096 293.086 484.058 292.647 484.147C292.209 484.236 291.794 484.449 291.439 484.769C291.084 485.088 290.799 485.504 290.608 485.983L281.481 509.951L277.006 505.158C276.704 504.839 276.348 504.6 275.963 504.458C275.577 504.315 275.17 504.272 274.769 504.332C274.37 504.397 273.988 504.564 273.648 504.822C273.308 505.079 273.019 505.421 272.801 505.823L259.132 531.097V536.876L275.239 507.448L289.937 523.294L292.286 521.669L283.449 512.135L292.912 487.234H293.203L301.435 497.647V493.067Z" fill="white"/>
<path d="M242.935 679.675L238.707 676.825C237.066 675.554 235.7 673.84 234.721 671.823C233.741 669.805 233.175 667.541 233.069 665.214V593.441C233.175 591.114 233.741 588.85 234.721 586.832C235.7 584.815 237.066 583.101 238.707 581.83L396.624 473.279C398.36 472.246 400.275 471.708 402.216 471.708C404.158 471.708 406.073 472.246 407.809 473.279L412.015 476.182C413.655 477.455 415.019 479.169 415.999 481.186C416.978 483.204 417.545 485.467 417.652 487.794V559.646C417.545 561.976 416.978 564.243 415.999 566.265C415.02 568.286 413.655 570.006 412.015 571.284L254.098 679.808C252.36 680.833 250.443 681.355 248.503 681.332C246.563 681.309 244.656 680.741 242.935 679.675Z" fill="#BA68C8"/>
<path opacity="0.4" d="M242.935 679.675L238.707 676.825C237.066 675.554 235.7 673.84 234.721 671.823C233.741 669.805 233.175 667.541 233.069 665.214V593.441C233.175 591.114 233.741 588.85 234.721 586.832C235.7 584.815 237.066 583.101 238.707 581.83L396.624 473.279C398.36 472.246 400.275 471.708 402.216 471.708C404.158 471.708 406.073 472.246 407.809 473.279L412.015 476.182C413.655 477.455 415.019 479.169 415.999 481.186C416.978 483.204 417.545 485.467 417.652 487.794V559.646C417.545 561.976 416.978 564.243 415.999 566.265C415.02 568.286 413.655 570.006 412.015 571.284L254.098 679.808C252.36 680.833 250.443 681.355 248.503 681.332C246.563 681.309 244.656 680.741 242.935 679.675Z" fill="#BA68C8"/>
<path opacity="0.3" d="M242.935 679.675L238.707 676.825C237.066 675.554 235.7 673.84 234.721 671.823C233.741 669.805 233.175 667.541 233.069 665.214V593.441C233.175 591.114 233.741 588.85 234.721 586.832C235.7 584.815 237.066 583.101 238.707 581.83L396.624 473.279C398.36 472.246 400.275 471.708 402.216 471.708C404.158 471.708 406.073 472.246 407.809 473.279L412.015 476.182C413.655 477.455 415.019 479.169 415.999 481.186C416.978 483.204 417.545 485.467 417.652 487.794V559.646C417.545 561.976 416.978 564.243 415.999 566.265C415.02 568.286 413.655 570.006 412.015 571.284L254.098 679.808C252.36 680.833 250.443 681.355 248.503 681.332C246.563 681.309 244.656 680.741 242.935 679.675Z" fill="white"/>
<path d="M259.132 603.615L234.725 586.837C233.716 588.838 233.147 591.109 233.069 593.441V665.16C233.175 667.487 233.741 669.752 234.721 671.769C235.7 673.787 237.066 675.501 238.707 676.772L242.935 679.675C244.667 680.725 246.584 681.272 248.528 681.272C250.472 681.272 252.388 680.725 254.12 679.675L259.064 676.292L259.132 603.615Z" fill="#BA68C8"/>
<path opacity="0.2" d="M259.132 603.615L234.725 586.837C233.716 588.838 233.147 591.109 233.069 593.441V665.16C233.175 667.487 233.741 669.752 234.721 671.769C235.7 673.787 237.066 675.501 238.707 676.772L242.935 679.675C244.667 680.725 246.584 681.272 248.528 681.272C250.472 681.272 252.388 680.725 254.12 679.675L259.064 676.292L259.132 603.615Z" fill="black"/>
<path d="M248.55 604.094V675.813C248.55 680.074 251.078 681.832 254.187 679.675L412.104 571.151C413.744 569.873 415.109 568.153 416.089 566.132C417.068 564.11 417.634 561.843 417.742 559.513V487.74C417.742 483.479 415.214 481.748 412.104 483.879L254.187 592.403C252.541 593.686 251.173 595.414 250.193 597.445C249.214 599.477 248.651 601.755 248.55 604.094Z" fill="#BA68C8"/>
<path d="M316.021 564.519L370.629 526.969C372.866 525.451 374.633 526.143 374.633 528.513C374.471 529.979 374.024 531.379 373.329 532.604C372.634 533.829 371.71 534.844 370.629 535.571L316.021 573.121C313.784 574.639 311.994 573.947 311.994 571.577C312.159 570.109 312.608 568.707 313.307 567.482C314.006 566.257 314.935 565.243 316.021 564.519Z" fill="white"/>
<path d="M315.395 586.757L403.715 525.983C405.595 524.705 407.116 525.291 407.116 527.288C406.981 528.53 406.604 529.717 406.013 530.754C405.422 531.79 404.635 532.646 403.715 533.254L315.328 594.027C313.449 595.306 311.927 594.72 311.927 592.722C312.069 591.473 312.457 590.281 313.06 589.244C313.662 588.207 314.462 587.355 315.395 586.757Z" fill="white"/>
<path d="M315.395 601.298L403.715 540.524C405.595 539.246 407.116 539.832 407.116 541.829C406.981 543.071 406.604 544.258 406.013 545.295C405.422 546.331 404.635 547.187 403.715 547.795L315.328 608.542C313.449 609.846 311.927 609.261 311.927 607.237C312.072 605.992 312.462 604.805 313.064 603.773C313.667 602.741 314.465 601.893 315.395 601.298Z" fill="white"/>
<path d="M315.395 615.812L403.715 555.065C405.595 553.787 407.116 554.373 407.116 556.37C406.978 557.607 406.599 558.789 406.008 559.82C405.418 560.852 404.633 561.704 403.715 562.309L315.328 623.056C313.449 624.334 311.927 623.748 311.927 621.751C312.072 620.506 312.462 619.319 313.064 618.288C313.667 617.256 314.465 616.407 315.395 615.812Z" fill="white"/>
<path d="M263.651 600.499L296.916 577.649C299.422 575.918 301.39 577.303 301.39 580.738V626.491C301.312 628.35 300.866 630.161 300.088 631.776C299.311 633.391 298.224 634.765 296.916 635.786L263.651 658.662C261.145 660.367 259.176 658.982 259.176 655.546V609.82C259.255 607.957 259.701 606.142 260.478 604.523C261.256 602.904 262.343 601.525 263.651 600.499Z" fill="#BA68C8"/>
<path opacity="0.3" d="M263.651 600.499L296.916 577.649C299.422 575.918 301.39 577.303 301.39 580.738V626.491C301.312 628.35 300.866 630.161 300.088 631.776C299.311 633.391 298.224 634.765 296.916 635.786L263.651 658.662C261.145 660.367 259.176 658.982 259.176 655.546V609.82C259.255 607.957 259.701 606.142 260.478 604.523C261.256 602.904 262.343 601.525 263.651 600.499Z" fill="white"/>
<path d="M266.491 620.552C265.787 620.555 265.094 620.345 264.478 619.94C263.741 619.369 263.145 618.575 262.752 617.638C262.359 616.702 262.182 615.658 262.241 614.614C262.339 612.154 262.931 609.759 263.966 607.628C265.001 605.496 266.45 603.691 268.191 602.363C268.895 601.688 269.754 601.283 270.655 601.2C271.556 601.118 272.457 601.362 273.239 601.902C274.021 602.441 274.648 603.249 275.036 604.22C275.425 605.192 275.557 606.28 275.416 607.343C275.322 609.8 274.735 612.195 273.704 614.327C272.672 616.458 271.227 618.264 269.489 619.594C268.577 620.221 267.544 620.552 266.491 620.552ZM269.489 604.92C268.152 605.983 267.039 607.399 266.236 609.057C265.433 610.715 264.962 612.57 264.858 614.48C264.721 614.99 264.734 615.541 264.896 616.041C265.058 616.541 265.359 616.959 265.748 617.227C266.138 617.495 266.593 617.596 267.037 617.513C267.482 617.429 267.889 617.168 268.191 616.771C269.53 615.71 270.645 614.295 271.448 612.637C272.251 610.978 272.721 609.121 272.821 607.21C272.959 606.7 272.946 606.149 272.784 605.649C272.622 605.15 272.321 604.731 271.931 604.463C271.542 604.195 271.087 604.095 270.642 604.178C270.198 604.261 269.791 604.523 269.489 604.92Z" fill="white"/>
<path d="M301.435 610.246L295.082 602.256C294.769 601.88 294.384 601.599 293.96 601.437C293.536 601.276 293.086 601.237 292.647 601.326C292.209 601.415 291.794 601.628 291.439 601.948C291.084 602.267 290.799 602.684 290.608 603.162L281.481 627.13L277.006 622.337C276.704 622.018 276.348 621.779 275.963 621.637C275.577 621.494 275.17 621.452 274.769 621.511C274.37 621.576 273.988 621.743 273.648 622.001C273.308 622.258 273.019 622.6 272.801 623.003L259.132 648.276V654.055L275.239 624.627L289.937 640.473L292.286 638.848L283.449 629.314L292.912 604.414H293.203L301.435 614.827V610.246Z" fill="white"/>
<path d="M443.827 537.115L439.621 534.213C437.98 532.942 436.614 531.228 435.635 529.21C434.655 527.193 434.089 524.928 433.983 522.601V218.335C434.091 216.008 434.658 213.745 435.637 211.727C436.616 209.71 437.981 207.996 439.621 206.723L682.122 40.036C683.856 38.9901 685.772 38.4451 687.715 38.4451C689.659 38.4451 691.575 38.9901 693.308 40.036L697.603 42.9921C699.243 44.2702 700.608 45.9894 701.587 48.011C702.567 50.0326 703.133 52.3 703.241 54.6301V358.817C703.133 361.143 702.567 363.407 701.587 365.424C700.608 367.441 699.243 369.156 697.603 370.428L455.169 537.115C453.415 538.192 451.471 538.754 449.498 538.754C447.525 538.754 445.58 538.192 443.827 537.115Z" fill="#BA68C8"/>
<path d="M460.046 228.508L435.639 211.73C434.62 213.726 434.05 216.001 433.983 218.335V522.601C434.089 524.928 434.655 527.193 435.635 529.21C436.614 531.228 437.98 532.942 439.621 534.213L443.827 537.115C445.56 538.161 447.476 538.706 449.419 538.706C451.363 538.706 453.279 538.161 455.012 537.115L459.956 533.733L460.046 228.508Z" fill="#E6E6E6"/>
<path d="M460.046 228.508L435.639 211.73C434.62 213.726 434.05 216.001 433.983 218.335V232.396L449.464 243.049L460.046 228.508Z" fill="#BA68C8"/>
<g opacity="0.2">
<path opacity="0.2" d="M460.046 228.508L435.639 211.73C434.62 213.726 434.05 216.001 433.983 218.335V232.396L449.464 243.049L460.046 228.508Z" fill="black"/>
</g>
<path d="M449.464 228.987V533.254C449.464 537.515 451.992 539.273 455.101 537.115L697.603 370.561C699.243 369.289 700.608 367.575 701.587 365.557C702.566 363.54 703.133 361.276 703.241 358.95V54.5502C703.241 50.2625 700.713 48.5314 697.603 50.662L455.169 217.376C453.515 218.638 452.136 220.348 451.145 222.366C450.153 224.384 449.577 226.653 449.464 228.987Z" fill="#F5F5F5"/>
<path d="M475.907 240.466C484.654 234.447 491.768 239.32 491.768 251.358C491.47 257.91 489.878 264.285 487.122 269.968C484.366 275.65 480.524 280.479 475.907 284.062C467.137 290.107 460.046 285.207 460.046 273.169C460.342 266.617 461.933 260.24 464.689 254.558C467.445 248.875 471.288 244.047 475.907 240.466Z" fill="#BA68C8"/>
<path d="M507.987 225.259L560.156 189.466C563.265 187.336 565.793 188.854 565.793 192.848C565.654 195.104 565.071 197.289 564.092 199.227C563.112 201.166 561.764 202.803 560.156 204.007L507.987 239.8C504.855 241.93 502.349 240.412 502.349 236.418C502.485 234.161 503.067 231.974 504.046 230.035C505.026 228.096 506.376 226.46 507.987 225.259Z" fill="#BA68C8"/>
<path d="M505.168 251.065L541.812 225.872C543.378 224.806 544.63 225.552 544.63 227.576C544.562 228.703 544.272 229.794 543.782 230.761C543.292 231.729 542.617 232.544 541.812 233.142L505.168 258.336C503.602 259.401 502.349 258.655 502.349 256.631C502.417 255.505 502.708 254.413 503.198 253.446C503.688 252.478 504.363 251.663 505.168 251.065Z" fill="#BA68C8"/>
<path d="M465.683 305.633L687.044 153.487C690.154 151.356 692.682 153.087 692.682 157.375V345.368C692.576 347.695 692.01 349.959 691.03 351.977C690.051 353.994 688.685 355.708 687.044 356.979L465.571 509.206C462.462 511.336 460.046 509.605 460.046 505.344V317.298C460.146 314.962 460.71 312.688 461.689 310.661C462.669 308.634 464.038 306.911 465.683 305.633Z" fill="#BA68C8"/>
<path d="M518.657 429.87C517.911 429.88 517.177 429.65 516.532 429.204C515.766 428.578 515.155 427.719 514.762 426.717C514.369 425.715 514.207 424.606 514.295 423.505V322.624C514.401 320.023 515.027 317.49 516.12 315.234C517.213 312.979 518.743 311.066 520.581 309.655L630.87 233.861C631.632 233.221 632.527 232.84 633.457 232.76C634.387 232.68 635.318 232.904 636.15 233.408C636.914 234.031 637.524 234.885 637.917 235.882C638.311 236.879 638.473 237.984 638.387 239.081V339.882C638.286 342.481 637.663 345.013 636.569 347.265C635.475 349.518 633.942 351.424 632.101 352.825L521.812 428.618C520.875 429.367 519.784 429.8 518.657 429.87ZM633.957 235.938C633.296 235.979 632.655 236.227 632.101 236.657L521.812 312.451C520.373 313.591 519.176 315.113 518.314 316.896C517.452 318.68 516.95 320.677 516.845 322.731V423.505C516.718 424.062 516.746 424.653 516.926 425.189C517.105 425.724 517.426 426.177 517.839 426.477C518.253 426.777 518.738 426.91 519.22 426.854C519.702 426.798 520.156 426.558 520.514 426.168L630.803 350.348C632.243 349.213 633.443 347.697 634.308 345.918C635.174 344.139 635.681 342.146 635.792 340.095V239.187C635.847 238.626 635.784 238.057 635.608 237.531C635.432 237.006 635.149 236.541 634.785 236.178C634.531 236.015 634.246 235.932 633.957 235.938Z" fill="white"/>
<path d="M533.825 345.234C532.632 345.245 531.458 344.878 530.425 344.169C529.143 343.134 528.118 341.708 527.457 340.04C526.796 338.373 526.523 336.524 526.666 334.688C526.842 330.048 527.95 325.525 529.896 321.498C531.842 317.472 534.57 314.059 537.852 311.545C539.065 310.352 540.555 309.629 542.123 309.473C543.69 309.316 545.261 309.734 546.624 310.67C547.987 311.605 549.077 313.015 549.748 314.709C550.419 316.403 550.64 318.3 550.379 320.147C550.189 324.784 549.075 329.3 547.13 333.324C545.186 337.348 542.465 340.764 539.194 343.29C537.576 344.482 535.726 345.152 533.825 345.234ZM539.194 314.209C536.305 316.455 533.9 319.479 532.174 323.037C530.449 326.595 529.451 330.586 529.261 334.688C528.998 335.987 529.095 337.352 529.538 338.579C529.981 339.806 530.746 340.829 531.719 341.495C532.691 342.161 533.819 342.433 534.933 342.272C536.046 342.111 537.086 341.524 537.896 340.601C540.779 338.354 543.177 335.332 544.899 331.78C546.62 328.227 547.616 324.243 547.807 320.147C548.07 318.852 547.974 317.49 547.534 316.265C547.093 315.04 546.332 314.017 545.363 313.349C544.395 312.681 543.271 312.404 542.159 312.559C541.047 312.714 540.007 313.292 539.194 314.209Z" fill="white"/>
<path d="M516.622 413.758L514.385 412.053L552.706 343.184C553.258 342.203 554.111 341.52 555.081 341.281C556.052 341.042 557.063 341.266 557.896 341.906L598.164 373.624L596.71 376.287L556.442 344.595C556.317 344.495 556.177 344.425 556.03 344.39C555.882 344.354 555.73 344.354 555.583 344.388C555.435 344.423 555.295 344.492 555.17 344.592C555.044 344.691 554.937 344.819 554.854 344.968L516.622 413.758Z" fill="white"/>
<path d="M576.509 358.204L574.272 356.766L604.294 289.734C604.581 289.091 604.997 288.542 605.504 288.133C606.01 287.725 606.593 287.47 607.202 287.391C607.812 287.326 608.426 287.435 608.994 287.708C609.562 287.982 610.067 288.411 610.468 288.962L638.119 328.457L636.128 330.428L608.41 290.959C608.294 290.789 608.144 290.655 607.973 290.57C607.803 290.485 607.617 290.451 607.433 290.472C607.249 290.493 607.073 290.568 606.919 290.69C606.766 290.813 606.64 290.978 606.553 291.173L576.509 358.204Z" fill="white"/>
<path d="M703.241 54.5502C703.241 50.2625 700.713 48.5314 697.603 50.662L455.169 217.376C453.528 218.647 452.162 220.361 451.182 222.378C450.203 224.396 449.637 226.66 449.531 228.987V243.022L703.241 68.6117V54.5502Z" fill="#BA68C8"/>
<path opacity="0.1" d="M703.241 54.5502C703.241 50.2625 700.713 48.5314 697.603 50.662L455.169 217.376C453.528 218.647 452.162 220.361 451.182 222.378C450.203 224.396 449.637 226.66 449.531 228.987V243.022L703.241 68.6117V54.5502Z" fill="black"/>
<path d="M778.362 382.253C771.808 391.574 759.861 409.364 753.754 418.525C750.503 423.317 748.748 429.303 748.788 435.463C748.788 440.043 749.884 443.852 753.62 441.908C756.824 440.03 759.677 437.404 762.009 434.184C765.566 430.003 778.161 411.974 778.161 411.974C778.161 411.974 787.825 381.72 793.149 379.803C796.033 378.674 799.067 378.195 802.098 378.391C795.7 375.888 786.662 370.561 778.362 382.253Z" fill="#F28F8F"/>
<path d="M805.297 372.319C798.72 366.434 787.624 367.978 781.472 376.82C776.998 383.291 766.26 399.111 766.26 399.111C767.568 402.577 769.472 405.679 771.85 408.216C774.227 410.753 777.025 412.668 780.062 413.838L805.297 372.319Z" fill="#BA68C8"/>
<path opacity="0.1" d="M805.297 372.319C798.72 366.434 787.624 367.978 781.472 376.82C776.998 383.291 766.26 399.111 766.26 399.111C767.568 402.577 769.472 405.679 771.85 408.216C774.227 410.753 777.025 412.668 780.062 413.838L805.297 372.319Z" fill="black"/>
<path d="M704.337 613.335L665.21 666.599C664.961 666.939 664.63 667.178 664.262 667.282C663.894 667.387 663.507 667.351 663.157 667.181C662.806 667.011 662.509 666.714 662.308 666.332C662.106 665.951 662.01 665.504 662.033 665.054L665.948 594.081L704.337 613.335Z" fill="#455A64"/>
<path d="M662.033 664.974C662.01 665.424 662.106 665.871 662.308 666.252C662.509 666.634 662.806 666.931 663.157 667.101C663.507 667.271 663.893 667.307 664.261 667.202C664.63 667.098 664.961 666.859 665.209 666.519L672.837 656.159C671.012 656.38 669.17 656.001 667.513 655.061C665.857 654.122 664.449 652.659 663.442 650.833L662.883 649.821L662.033 664.974Z" fill="#263238"/>
<path d="M761.651 318.39L759.548 324.435L756.998 331.706L665.948 594.001C668.342 601.451 673.029 607.536 679.057 611.018C688.006 616.744 698.789 617.756 704.314 613.335L794.738 352.985L799.592 339.03C796.035 347.845 758.228 327.285 761.651 318.39Z" fill="#37474F"/>
<path d="M753.642 341.267L748.967 354.769C747.513 358.657 753.642 364.596 761.45 369.443C771.763 375.914 785.006 380.388 786.953 375.275L790.375 365.315L791.606 361.746C789.66 366.86 776.416 362.385 766.081 355.914C758.609 351.253 752.658 345.554 753.53 341.693C753.533 341.541 753.572 341.393 753.642 341.267Z" fill="#455A64"/>
<path d="M752.502 344.755C749.079 353.73 787.042 374.21 790.532 365.235L795.253 351.733C791.83 360.708 753.866 340.228 757.222 331.253L752.502 344.755Z" fill="#37474F"/>
<path d="M761.651 318.39L756.998 331.706C753.598 340.494 790.085 360.681 794.693 353.011C794.793 352.865 794.876 352.704 794.939 352.532L799.548 339.056C796.035 347.845 758.228 327.285 761.651 318.39Z" fill="#455A64"/>
<path d="M781.427 261.771L761.651 318.39C760.175 322.198 766.125 328.137 773.933 332.984C784.246 339.482 797.512 344.09 799.548 339.03L818.518 284.568C823.82 272.317 805.543 256.871 792.389 255.965C787.557 255.539 783.396 257.191 781.427 261.771Z" fill="#263238"/>
<path d="M796.013 345.075C804.81 345.075 811.941 336.585 811.941 326.113C811.941 315.641 804.81 307.151 796.013 307.151C787.216 307.151 780.085 315.641 780.085 326.113C780.085 336.585 787.216 345.075 796.013 345.075Z" fill="#263238"/>
<path d="M834.132 646.891H822.925V669.741H834.132V646.891Z" fill="#FFA8A7"/>
<path d="M795.251 645.693L784.044 646.146L783.485 621.937L794.692 621.485L795.251 645.693Z" fill="#FFA8A7"/>
<path d="M833.417 465.69C833.417 478.446 834.804 555.704 834.804 555.704C835.05 559.38 837.959 566.144 837.332 580.232C836.482 599.38 835.095 649.155 835.095 649.155C835.095 649.155 829.816 655.36 822.388 649.155C822.388 649.155 812.232 580.312 810.241 561.27C808.474 544.732 805.498 499.751 805.498 499.751L795.208 552.748C795.208 552.748 797.042 565.185 797.445 574.054C797.847 582.922 795.543 628.808 795.543 628.808C793.727 630.168 791.643 630.935 789.499 631.034C787.355 631.132 785.227 630.557 783.329 629.368C783.329 629.368 774.38 560.125 773.172 552.136C771.964 544.146 781.047 465.849 781.047 465.849L833.417 465.69Z" fill="#37474F"/>
<path d="M822.635 373.438C825.027 373.933 827.242 375.263 828.998 377.259C830.754 379.255 831.973 381.828 832.5 384.649C833.106 387.984 833.413 391.385 833.417 394.796V465.689C825.543 475.863 798.116 480.603 780.935 465.689C780.935 465.689 781.293 403.052 782.568 392.772C784.805 374.902 791.986 368.511 799.212 369.203L816.527 372.133L822.635 373.438Z" fill="#BA68C8"/>
<path d="M823.551 339.589C822.59 345.262 821.38 350.871 819.927 356.393C819.237 357.855 818.099 358.943 816.751 359.429L816.93 349.283L823.551 339.589Z" fill="#263238"/>
<path d="M820.308 318.923C821.209 318.791 822.123 318.908 822.98 319.263C823.837 319.619 824.614 320.204 825.251 320.973C827.376 323.636 826.191 331.626 823.551 339.615L818.675 340.281L820.308 318.923Z" fill="#263238"/>
<path d="M817.221 340.254C818.205 340.947 819.592 338.736 820.8 337.218C821.271 336.572 821.873 336.081 822.549 335.79C823.224 335.5 823.951 335.42 824.66 335.559C825.369 335.698 826.036 336.051 826.598 336.584C827.16 337.116 827.597 337.812 827.87 338.603C829.861 343.61 826.147 350.215 823.06 351.36C817.735 353.357 816.93 349.283 816.93 349.283L816.527 372.159C815.349 375.224 813.552 377.893 811.295 379.929C809.039 381.964 806.394 383.302 803.597 383.824C794.156 385.342 796.103 376.074 799.123 371.547V364.596C796.756 365.037 794.356 365.18 791.964 365.022C788.027 364.303 785.566 360.628 784.38 355.594C782.479 347.605 781.763 340.947 783.374 324.995C785.141 307.524 802.21 307.338 811.427 314.342C820.644 321.346 817.221 340.254 817.221 340.254Z" fill="#FFA8A7"/>
<path d="M817.221 342.199C817.713 342.199 819.57 338.55 820.8 337.219C822.478 335.408 820.308 318.923 820.308 318.923C820.732 317.488 820.804 315.939 820.515 314.458C820.226 312.977 819.587 311.625 818.675 310.56C816.438 307.551 812.523 307.231 805.946 305.98C802.5 305.341 797.288 304.195 793.843 303.317C789.727 302.411 786.326 301.452 783.418 304.462C782.283 305.639 781.481 307.204 781.121 308.943C780.76 310.683 780.86 312.512 781.405 314.182C781.699 314.943 782.091 315.644 782.568 316.26C783.349 317.371 784.37 318.209 785.521 318.683C785.521 318.683 787.333 320.574 793.552 321.479C799.314 322.005 805.105 321.871 810.845 321.08C812.657 320.787 813.082 322.891 813.999 328.59C814.872 333.703 815.565 342.172 817.221 342.199Z" fill="#263238"/>
<path d="M820.286 320.201L826.191 316.419C826.001 315.947 825.733 315.525 825.402 315.179C825.072 314.833 824.686 314.57 824.269 314.406C823.851 314.241 823.409 314.18 822.971 314.224C822.532 314.267 822.106 314.416 821.717 314.662C820.932 315.195 820.347 316.065 820.081 317.094C819.815 318.123 819.888 319.234 820.286 320.201Z" fill="#263238"/>
<path d="M799.212 364.596C803.245 363.68 807.198 362.325 811.022 360.548C812.813 359.442 814.28 357.715 815.228 355.594C814.77 357.72 813.956 359.713 812.834 361.453C810.597 364.862 799.212 367.366 799.212 367.366V364.596Z" fill="#F28F8F"/>
<path d="M801.315 337.671C801.287 337.966 801.311 338.264 801.387 338.546C801.462 338.828 801.587 339.088 801.753 339.309C801.919 339.53 802.122 339.707 802.349 339.828C802.576 339.949 802.822 340.012 803.071 340.012C803.319 340.012 803.565 339.949 803.793 339.828C804.02 339.707 804.223 339.53 804.389 339.309C804.554 339.088 804.679 338.828 804.754 338.546C804.83 338.264 804.854 337.966 804.827 337.671C804.832 337.393 804.792 337.116 804.707 336.856C804.622 336.596 804.495 336.359 804.333 336.159C804.171 335.958 803.976 335.798 803.762 335.687C803.547 335.576 803.316 335.518 803.082 335.514C802.847 335.518 802.615 335.576 802.399 335.686C802.183 335.797 801.987 335.957 801.823 336.157C801.659 336.357 801.53 336.594 801.442 336.854C801.355 337.114 801.312 337.391 801.315 337.671Z" fill="#263238"/>
<path d="M803.171 329.788L806.929 332.238C807.196 331.628 807.255 330.919 807.092 330.258C806.93 329.598 806.559 329.038 806.057 328.696C805.808 328.536 805.535 328.437 805.254 328.406C804.973 328.374 804.689 328.41 804.419 328.512C804.15 328.614 803.901 328.78 803.686 328.999C803.472 329.218 803.297 329.487 803.171 329.788Z" fill="#263238"/>
<path d="M800.017 352.052L796.013 353.837C796.099 354.156 796.238 354.452 796.421 354.707C796.605 354.961 796.83 355.169 797.082 355.318C797.335 355.467 797.61 355.554 797.891 355.574C798.172 355.594 798.454 355.547 798.72 355.435C799.264 355.184 799.704 354.69 799.946 354.058C800.189 353.426 800.214 352.706 800.017 352.052Z" fill="#F28F8F"/>
<path d="M785.7 331.519L789.122 328.377C788.781 327.884 788.294 327.566 787.762 327.487C787.229 327.408 786.692 327.574 786.259 327.951C785.804 328.351 785.493 328.942 785.39 329.604C785.286 330.266 785.397 330.951 785.7 331.519Z" fill="#263238"/>
<path d="M786.751 337.059C786.76 337.474 786.872 337.876 787.072 338.216C787.273 338.555 787.553 338.816 787.878 338.967C788.203 339.117 788.558 339.149 788.898 339.06C789.239 338.971 789.549 338.764 789.791 338.465C790.033 338.166 790.195 337.789 790.257 337.38C790.319 336.972 790.278 336.551 790.14 336.17C790.001 335.789 789.772 335.466 789.479 335.24C789.187 335.014 788.845 334.897 788.496 334.902C788.262 334.905 788.031 334.964 787.816 335.074C787.602 335.185 787.407 335.345 787.245 335.546C787.083 335.747 786.956 335.984 786.871 336.244C786.786 336.503 786.745 336.78 786.751 337.059Z" fill="#263238"/>
<path d="M795.677 335.088L795.095 347.632L789.593 345.395L795.677 335.088Z" fill="#F28F8F"/>
<path d="M822.925 663.163V661.246C821.851 661.805 819.368 673.15 814.916 677.97C811.382 681.805 806.549 686.253 805.319 690.54C804.089 694.828 812.03 697.465 815.341 696.746C819.189 695.947 825.856 692.724 827.511 689.741C829.167 686.759 829.972 682.365 831.337 680.154C832.701 677.944 835.811 675.547 836.549 673.017C836.777 670.645 836.555 668.242 835.9 665.986C835.386 663.642 834.826 661.033 834.155 661.246V662.71C832.554 664.203 830.574 665.001 828.54 664.974C826.907 665.054 822.925 664.654 822.925 663.163Z" fill="#263238"/>
<path d="M784.022 642.018C783.44 642.018 782.948 643.03 781.785 644.681C779.832 647.001 777.563 648.91 775.074 650.327C770.868 652.83 762.702 656.692 759.011 658.662C756.774 659.914 756.774 663.216 759.19 665.107C761.606 666.998 767.356 668.356 774.268 666.519C778.027 665.507 782.948 661.379 786.058 661.592C789.167 661.805 795.006 661.778 797.243 659.888C799.48 657.997 798.608 654.002 797.959 650.54C797.31 647.078 796.237 641.006 795.185 641.272V642.444C793.843 644.867 786.975 645.879 784 644.068L784.022 642.018Z" fill="#263238"/>
<path d="M805.497 499.805C799.683 497.667 794.337 494.03 789.839 489.152C792.836 494.617 796.955 499.08 801.806 502.122L798.45 536.263L805.497 499.805Z" fill="#263238"/>
<path d="M742.703 449.977C745.483 450.424 748.24 451.064 750.958 451.894C753.224 453.07 755.696 453.573 758.161 453.359C761.36 453.12 769.727 448.406 777.132 443.053C785.245 436.747 792.394 428.84 798.272 419.67C804.984 408.352 812.411 390.509 815.968 383.691C819.525 376.873 822.88 376.154 826.818 376.367C831.471 376.58 834.424 381.693 830.352 392.16C824.515 406.477 817.365 419.982 809.033 432.427C802.627 441.447 795.015 449.149 786.505 455.223C779.126 460.338 771.254 464.371 763.06 467.234C760.689 468.166 759.123 469.578 754.783 472.001C753.036 473.137 751.16 473.962 749.213 474.451C746.772 474.877 744.293 474.877 741.853 474.451C738.758 473.95 735.836 472.459 733.396 470.137C732.048 468.879 730.974 467.253 730.264 465.397C729.561 463.521 729.427 461.412 729.884 459.431C729.977 459.036 730.145 458.671 730.376 458.366C730.898 457.935 731.54 457.763 732.166 457.887C735.656 457.887 739.392 458.792 742.859 458.499C745.79 458.259 747.848 457.594 747.334 457.088C746.819 456.582 745.096 456.901 742.859 455.703C740.622 454.504 738.989 451.815 739.616 450.376C740.242 448.938 740.242 449.231 742.703 449.977Z" fill="#FFA8A7"/>
<path d="M825.319 374.396C826.417 374.372 827.507 374.618 828.521 375.119C829.535 375.621 830.451 376.366 831.212 377.309C831.972 378.252 832.561 379.372 832.94 380.598C833.32 381.825 833.482 383.132 833.417 384.437C833.417 391.707 823.977 412.773 816.751 424.783C816.751 424.783 805.565 423.931 799.592 413.838C799.592 413.838 810.107 393.917 813.015 387.579C815.52 381.88 820.107 374.103 825.319 374.396Z" fill="#BA68C8"/>
<path d="M731.674 404.783C735.065 403.028 738.808 402.473 742.457 403.185C745.41 403.745 745.41 415.436 735.947 419.164C729.795 421.561 726.104 420.496 724.113 426.515C724.113 426.515 720.131 425.902 721.048 419.164C722.04 412.241 724.635 405.785 728.542 400.522C731.249 396.714 731.428 393.518 732.77 394.583C734.112 395.649 733.576 399.377 733.576 399.377L731.674 404.783Z" fill="#FFA8A7"/>
</svg>
