<svg width="100" height="100" viewBox="0 0 100 100" fill="none" xmlns="http://www.w3.org/2000/svg">
<path fill-rule="evenodd" clip-rule="evenodd" d="M27.0834 18.75C25.9327 18.75 25 19.6828 25 20.8334V85.4167C25 86.5673 25.9327 87.5 27.0834 87.5H72.9167C74.0673 87.5 75 86.5673 75 85.4167V20.8334C75 19.6828 74.0673 18.75 72.9167 18.75H61.2848V14.5834H72.9167C76.3686 14.5834 79.1667 17.3816 79.1667 20.8334V85.4167C79.1667 88.8686 76.3686 91.6667 72.9167 91.6667H27.0834C23.6315 91.6667 20.8334 88.8686 20.8334 85.4167V20.8334C20.8334 17.3816 23.6315 14.5834 27.0834 14.5834H38.7152V18.75H27.0834Z" fill="#333333"/>
<path fill-rule="evenodd" clip-rule="evenodd" d="M35.4166 14.5834C35.4166 11.1316 38.2148 8.33337 41.6666 8.33337H58.3333C61.7852 8.33337 64.5833 11.1316 64.5833 14.5834V18.75C64.5833 22.2019 61.7852 25 58.3333 25H41.6666C38.2148 25 35.4166 22.2019 35.4166 18.75V14.5834ZM41.6666 12.5C40.516 12.5 39.5833 13.4328 39.5833 14.5834V18.75C39.5833 19.9006 40.516 20.8334 41.6666 20.8334H58.3333C59.4839 20.8334 60.4166 19.9006 60.4166 18.75V14.5834C60.4166 13.4328 59.4839 12.5 58.3333 12.5H41.6666Z" fill="#333333"/>
<path fill-rule="evenodd" clip-rule="evenodd" d="M31.25 43.75C31.25 42.5993 32.1827 41.6666 33.3333 41.6666H47.9167C49.0673 41.6666 50 42.5993 50 43.75C50 44.9006 49.0673 45.8333 47.9167 45.8333H33.3333C32.1827 45.8333 31.25 44.9006 31.25 43.75Z" fill="#333333"/>
<path fill-rule="evenodd" clip-rule="evenodd" d="M31.25 33.3333C31.25 32.1827 32.1827 31.25 33.3333 31.25H65.625C66.7756 31.25 67.7083 32.1827 67.7083 33.3333C67.7083 34.484 66.7756 35.4167 65.625 35.4167H33.3333C32.1827 35.4167 31.25 34.484 31.25 33.3333Z" fill="#333333"/>
<path fill-rule="evenodd" clip-rule="evenodd" d="M35.4167 60.4167V64.5833H39.5833V60.4167H35.4167ZM33.3333 56.25C32.1827 56.25 31.25 57.1827 31.25 58.3333V66.6667C31.25 67.8173 32.1827 68.75 33.3333 68.75H41.6667C42.8173 68.75 43.75 67.8173 43.75 66.6667V58.3333C43.75 57.1827 42.8173 56.25 41.6667 56.25H33.3333Z" fill="#333333"/>
<path fill-rule="evenodd" clip-rule="evenodd" d="M58.3334 60.4167C59.4852 60.4167 60.4167 59.4852 60.4167 58.3334C60.4167 57.1815 59.4852 56.25 58.3334 56.25C57.1815 56.25 56.25 57.1815 56.25 58.3334C56.25 59.4852 57.1815 60.4167 58.3334 60.4167ZM58.3334 64.5834C61.7865 64.5834 64.5834 61.7865 64.5834 58.3334C64.5834 54.8802 61.7865 52.0834 58.3334 52.0834C54.8802 52.0834 52.0834 54.8802 52.0834 58.3334C52.0834 61.7865 54.8802 64.5834 58.3334 64.5834Z" fill="#333333"/>
<path fill-rule="evenodd" clip-rule="evenodd" d="M50 73.4985C50.0265 73.4677 50.0636 73.4272 50.1144 73.3775C50.4555 73.0437 51.1152 72.6016 52.1484 72.1629C54.2315 71.2777 56.8017 70.8333 58.3334 70.8333C59.865 70.8333 62.4352 71.2777 64.5184 72.1629C65.5515 72.6016 66.2113 73.0437 66.5523 73.3775C66.6032 73.4272 66.6402 73.4677 66.6667 73.4985V77.0833H50V73.4985ZM58.3334 66.6666C54.1615 66.6666 45.8334 68.8873 45.8334 73.2954V81.25H70.8334V73.2954C70.8334 68.8873 62.5052 66.6666 58.3334 66.6666Z" fill="#333333"/>
</svg>
